<svg version="1.1" xmlns="http://www.w3.org/2000/svg" xmlns:xlink="http://www.w3.org/1999/xlink" width="49.3996" height="41.06954" viewBox="0,0,49.3996,41.06954"><defs><linearGradient x1="225.66122" y1="193.67156" x2="225.66122" y2="207.71533" gradientUnits="userSpaceOnUse" id="color-1"><stop offset="0" stop-color="#725c4b"/><stop offset="1" stop-color="#5b412a"/></linearGradient><linearGradient x1="253.3675" y1="193.8153" x2="253.3675" y2="207.85907" gradientUnits="userSpaceOnUse" id="color-2"><stop offset="0" stop-color="#725c4b"/><stop offset="1" stop-color="#5b412a"/></linearGradient><linearGradient x1="240.32152" y1="188.23121" x2="240.32152" y2="193.27644" gradientUnits="userSpaceOnUse" id="color-3"><stop offset="0" stop-color="#846a58"/><stop offset="1" stop-color="#b29072"/></linearGradient><linearGradient x1="240.39708" y1="165.58328" x2="240.39708" y2="191.09637" gradientUnits="userSpaceOnUse" id="color-4"><stop offset="0" stop-color="#d6c0ad"/><stop offset="1" stop-color="#ad947e"/></linearGradient><linearGradient x1="249.5527" y1="169.85584" x2="245.28049" y2="173.62008" gradientUnits="userSpaceOnUse" id="color-5"><stop offset="0" stop-color="#725c4b"/><stop offset="1" stop-color="#5b412a"/></linearGradient><linearGradient x1="232.08682" y1="169.64775" x2="235.5212" y2="173.85788" gradientUnits="userSpaceOnUse" id="color-6"><stop offset="0" stop-color="#725c4b"/><stop offset="1" stop-color="#5b412a"/></linearGradient></defs><g transform="translate(-215.04244,-165.33327)"><g data-paper-data="{&quot;isPaintingLayer&quot;:true}" fill="none" fill-rule="nonzero" stroke="none" stroke-width="none" stroke-linecap="butt" stroke-linejoin="miter" stroke-miterlimit="10" stroke-dasharray="" stroke-dashoffset="0" font-family="none" font-weight="none" font-size="none" text-anchor="none" style="mix-blend-mode: normal"><path d="M253.76759,193.56391c-0.26292,5.12475 -6.15529,9.29138 -13.74822,9.29138c-7.59294,0 -13.67348,-4.16044 -13.74822,-9.29138c-0.15108,-10.37165 7.62382,-9.29138 13.74822,-9.29138c7.59294,0 14.35254,-2.4876 13.74822,9.29138z" data-paper-data="{&quot;origPos&quot;:null}" fill="#e2cbb7" stroke="#b79e89" stroke-width="0.5"/><path d="M236.02997,200.69344c0,3.87808 -1.22745,5.15346 -10.50002,5.31563c-9.26797,0.16209 -10.23751,-1.43755 -10.23751,-5.31563c0,-3.87808 4.64225,-7.02189 10.36876,-7.02189c5.72651,0 10.36876,3.14381 10.36876,7.02189z" data-paper-data="{&quot;origPos&quot;:null}" fill="url(#color-1)" stroke="#2e2318" stroke-width="0.5"/><path d="M263.73625,200.83718c0,3.87808 -1.22745,5.15346 -10.50002,5.31563c-9.26797,0.16209 -10.23752,-1.43755 -10.23752,-5.31563c0,-3.87808 4.64226,-7.02188 10.36877,-7.02188c5.72651,0 10.36877,3.1438 10.36877,7.02188z" data-paper-data="{&quot;origPos&quot;:null}" fill="url(#color-2)" stroke="#2e2318" stroke-width="0.5"/><g data-paper-data="{&quot;origPos&quot;:null}"><path d="M262.53013,187.61457c0,1.3964 -4.51217,4.00026 -11.47318,4.90306c-3.80788,0.49386 -6.8699,-0.58659 -10.73549,-0.58659c-3.42608,0 -6.66589,0.95658 -10.09057,0.88363c-5.59832,-0.11926 -11.06055,-1.57156 -11.06055,-3.29413c0,-1.3932 13.55818,-1.28933 21.15111,-1.28933c7.59293,0 22.20867,-2.00984 22.20867,-0.61664z" data-paper-data="{&quot;origPos&quot;:null}" fill="url(#color-3)" stroke="#654d38" stroke-width="0.5"/><path d="M264.19203,183.91473c0,4.05261 -3.19595,6.02118 -8.60699,6.56717c-5.41739,0.54664 -10.03651,-1.60617 -15.64125,-1.46589c-5.87885,0.14714 -7.22016,2.24182 -14.25195,2.07039c-6.69679,-0.16326 -9.08982,-1.58494 -9.08982,-7.17168c0,-6.08609 1.74878,-5.7416 7.63751,-9.97755c4.39724,-3.16308 9.17288,-8.40961 15.70426,-8.35345c6.53138,0.05615 10.97868,3.83476 15.99102,8.03813c4.62858,3.88155 8.25723,4.44143 8.25723,10.29287z" data-paper-data="{&quot;origPos&quot;:null}" fill="url(#color-4)" stroke="#785f49" stroke-width="0.5"/><g data-paper-data="{&quot;origPos&quot;:null,&quot;index&quot;:null}" stroke="#000000" stroke-width="0"><path d="M246.76956,175.95728c2.50876,0 2.26619,1.95765 2.26619,4.37254c0,2.41488 0.24257,2.06377 -2.26619,2.06377c-2.50876,0 -2.26619,0.35112 -2.26619,-2.06377c0,-2.41489 -0.24257,-4.37254 2.26619,-4.37254z" data-paper-data="{&quot;origPos&quot;:null}" fill="#000000"/><path d="M247.21134,176.53118c0.55338,0 1.00198,0.39343 1.00198,0.87876c0,0.48533 -0.4486,0.87876 -1.00198,0.87876c-0.55338,0 -1.00198,-0.39343 -1.00198,-0.87876c0,-0.48533 0.4486,-0.87876 1.00198,-0.87876z" data-paper-data="{&quot;origPos&quot;:null}" fill="#ffffff"/><path d="M245.78569,178.00308c0.30939,0 0.5602,0.21997 0.5602,0.49131c0,0.27134 -0.25081,0.49131 -0.5602,0.49131c-0.30939,0 -0.5602,-0.21997 -0.5602,-0.49131c0,-0.27134 0.25081,-0.49131 0.5602,-0.49131z" data-paper-data="{&quot;origPos&quot;:null}" fill="#aaaaaa"/></g><g data-paper-data="{&quot;origPos&quot;:null,&quot;index&quot;:null}" stroke="#000000" stroke-width="0"><path d="M234.57616,175.96547c2.50876,0 2.26619,1.95765 2.26619,4.37254c0,2.41488 0.24257,2.22868 -2.26619,2.22868c-2.50876,0 -2.26619,0.18621 -2.26619,-2.22868c0,-2.41489 -0.24257,-4.37254 2.26619,-4.37254z" data-paper-data="{&quot;origPos&quot;:null}" fill="#000000"/><path d="M235.01796,176.53937c0.55337,0 1.00197,0.39343 1.00197,0.87876c0,0.48533 -0.4486,0.87877 -1.00197,0.87877c-0.55338,0 -1.00198,-0.39344 -1.00198,-0.87877c0,-0.48533 0.44861,-0.87876 1.00198,-0.87876z" data-paper-data="{&quot;origPos&quot;:null}" fill="#ffffff"/><path d="M233.59235,178.01128c0.30939,0 0.5602,0.21997 0.5602,0.49131c0,0.27134 -0.25081,0.49131 -0.5602,0.49131c-0.30939,0 -0.5602,-0.21997 -0.5602,-0.49131c0,-0.27134 0.25081,-0.49131 0.5602,-0.49131z" data-paper-data="{&quot;origPos&quot;:null}" fill="#aaaaaa"/></g><path d="M242.76113,172.04527c-1.07638,-0.66158 -1.13353,-1.4284 0.28337,-2.40941c1.41691,-0.98102 3.09095,-0.9457 4.5145,-0.57838c4.31622,1.11377 4.65824,4.45499 4.65824,4.45499c0,0 -1.39596,-1.27395 -2.71304,-1.71607c-0.59268,-0.19896 -2.57419,-0.59131 -3.20077,-0.15749c-1.41691,0.98101 -2.4659,1.06794 -3.54228,0.40636z" data-paper-data="{&quot;origPos&quot;:null,&quot;origRot&quot;:0,&quot;index&quot;:null}" fill="url(#color-5)" stroke="#2e2318" stroke-width="0.5"/><path d="M238.33902,172.59187c-1.20155,0.52979 -2.21971,0.32326 -3.41461,-0.80886c-0.5284,-0.50064 -2.5679,-0.34094 -3.19498,-0.21256c-1.39351,0.28529 -3.03866,1.3833 -3.03866,1.3833c0,0 1.03571,-3.26152 5.53238,-3.86539c1.48307,-0.19917 3.14424,-0.04151 4.33915,1.09062c0,0 0.97826,1.8831 -0.22328,2.41289z" data-paper-data="{&quot;origPos&quot;:null,&quot;origRot&quot;:0,&quot;index&quot;:null}" fill="url(#color-6)" stroke="#2e2318" stroke-width="0.5"/><path d="M228.26374,191.02273c0,0 1.87063,-0.06213 3.33606,-0.45291c2.60829,-0.69555 4.53935,-1.17959 4.53935,-1.17959l-2.77534,4.14584z" data-paper-data="{&quot;origPos&quot;:null}" fill="#ffffff" stroke="#9a9a9a" stroke-width="0.5"/><path d="M246.74701,192.84907l-3.19119,-3.68294c0,0 3.17859,0.48403 4.74727,0.79383c1.5048,0.29719 3.54398,0.37576 3.54398,0.37576z" data-paper-data="{&quot;origPos&quot;:null,&quot;index&quot;:null}" fill="#ffffff" stroke="#9a9a9a" stroke-width="0.5"/></g></g></g></svg>