<svg version="1.1" xmlns="http://www.w3.org/2000/svg" xmlns:xlink="http://www.w3.org/1999/xlink" width="112.25019" height="32.34527"><defs><linearGradient x1="274.78512" y1="184.30003" x2="240.36251" y2="184.30003" gradientUnits="userSpaceOnUse" id="color-1"><stop offset="0" stop-color="#ffffff"/><stop offset="1" stop-color="#d0d9e2"/></linearGradient><linearGradient x1="207.16251" y1="184.30002" x2="241.58512" y2="184.30002" gradientUnits="userSpaceOnUse" id="color-2"><stop offset="0" stop-color="#ffffff"/><stop offset="1" stop-color="#d0d9e2"/></linearGradient><linearGradient x1="240" y1="190.87765" x2="240" y2="198.97265" gradientUnits="userSpaceOnUse" id="color-3"><stop offset="0" stop-color="#ff8b26"/><stop offset="1" stop-color="#e97823"/></linearGradient><linearGradient x1="240" y1="167.62738" x2="240" y2="175.72238" gradientUnits="userSpaceOnUse" id="color-4"><stop offset="0" stop-color="#ff8b26"/><stop offset="1" stop-color="#e97823"/></linearGradient><linearGradient x1="276.13728" y1="177.4089" x2="276.13728" y2="187" gradientUnits="userSpaceOnUse" id="color-5"><stop offset="0" stop-color="#ffffff"/><stop offset="1" stop-color="#d0d9e2"/></linearGradient><linearGradient x1="204.61253" y1="177.4089" x2="204.61253" y2="187" gradientUnits="userSpaceOnUse" id="color-6"><stop offset="0" stop-color="#ffffff"/><stop offset="1" stop-color="#d0d9e2"/></linearGradient></defs><g transform="translate(-184.24981,-167.12738)"><g data-paper-data="{&quot;isPaintingLayer&quot;:true}" fill="none" fill-rule="nonzero" stroke="none" stroke-width="1" stroke-linecap="butt" stroke-linejoin="miter" stroke-miterlimit="10" stroke-dasharray="" stroke-dashoffset="0" font-family="none" font-weight="none" font-size="none" text-anchor="none" style="mix-blend-mode: normal"><path d="M243.16251,193.53385l19.26028,-9.72275l-19.26028,-8.74489h15.23089l16.39173,8.74489l-16.39173,9.72275z" data-paper-data="{&quot;origPos&quot;:null,&quot;index&quot;:null}" fill="url(#color-1)" stroke="#979ebd"/><path d="M223.55423,193.53386l-16.39173,-9.72275l16.39173,-8.74489h15.23089l-19.26028,8.74489l19.26028,9.72275z" data-paper-data="{&quot;origPos&quot;:null,&quot;index&quot;:null}" fill="url(#color-2)" stroke="#979ebd"/><path d="M219.0036,198.97265v-8.095h41.99279v8.095z" data-paper-data="{&quot;origPos&quot;:null}" fill="url(#color-3)" stroke="#ab4a1a"/><path d="M219.0036,175.72238v-8.095h41.99279v8.095z" data-paper-data="{&quot;origPos&quot;:null}" fill="url(#color-4)" stroke="#ab4a1a"/><path d="M296,170.84658c0,2.64851 -7.05057,16.15343 -19.86272,16.15343c-12.81215,0 -10.15879,-2.58523 -10.15879,-4.03836c0,-1.70553 1.00578,-5.55274 10.15879,-5.55274c12.81215,0 19.86272,-9.21084 19.86272,-6.56233z" data-paper-data="{&quot;origPos&quot;:null}" fill="url(#color-5)" stroke="#979ebd"/><path d="M204.61253,177.4089c9.15302,0 10.15879,3.84722 10.15879,5.55274c0,1.45313 2.65335,4.03836 -10.15879,4.03836c-12.81215,0 -19.86272,-13.50492 -19.86272,-16.15343c0,-2.64851 7.05057,6.56233 19.86272,6.56233z" data-paper-data="{&quot;origPos&quot;:null,&quot;index&quot;:null}" fill="url(#color-6)" stroke="#979ebd"/></g></g></svg>