<svg version="1.1" xmlns="http://www.w3.org/2000/svg" xmlns:xlink="http://www.w3.org/1999/xlink" width="720" height="540" viewBox="0,0,720,540"><defs><clipPath id="clip-1"><rect x="-240" y="-180" transform="scale(0.5,0.5)" width="1440" height="1080" fill="none" fill-rule="nonzero" stroke="none" stroke-width="0.5" stroke-linejoin="miter"/></clipPath></defs><g transform="translate(120,90)"><g clip-path="url(#clip-1)" data-paper-data="{&quot;isPaintingLayer&quot;:true}" stroke-linecap="butt" stroke-miterlimit="10" stroke-dasharray="" stroke-dashoffset="0" style="mix-blend-mode: normal"><path d="M257.77453,181.01919h-4.61235v15.49217h-12.213h-9.90501h-4.20634v-15.49217h-4.61235l17.77452,-17.53055l8.81869,8.56137v-3.26149h4.34348v7.6102zM249.4972,172.72959l2.98648,2.98973v-6.25122h-2.98648zM240.27068,195.83178v-14.26907h-8.54801v14.26907zM252.48367,180.33979l-12.48367,-12.50244l-12.61901,12.50244v15.49198h3.66318v-14.81258h9.90501v14.81258h11.5345zM253.43285,180.33979h2.57866l-16.01151,-16.17157l-16.14685,16.17157h2.57866l13.16036,-13.18202l0.40782,-0.40764l0.27068,0.40764z" fill="#29ffff" fill-rule="evenodd" stroke="#29ffff" stroke-width="2.5" stroke-linejoin="round"/><path d="M250.19555,187.48876h-6.67672v-6.49627h6.67672zM249.51343,181.53384h-5.31251v5.27822h5.31251z" fill="#29ffff" fill-rule="evenodd" stroke="#29ffff" stroke-width="2.5" stroke-linejoin="round"/><path d="M234.13531,189.20305c0,0.33077 -0.36091,0.99248 -1.08271,0.99248c-0.7218,0 -1.08271,-0.66172 -1.08271,-0.99248c0,-0.66172 0.36091,-0.99248 1.08271,-0.99248c0.7218,0 1.08271,0.33077 1.08271,0.99248zM233.41351,189.20305c0,-0.33077 0,-0.33077 -0.36091,-0.33077c-0.36091,0 -0.36091,0 -0.36091,0.33077c0,0 0,0.33077 0.36091,0.33077c0.36091,0 0.36091,-0.33077 0.36091,-0.33077z" fill="#29ffff" fill-rule="evenodd" stroke="#29ffff" stroke-width="2.5" stroke-linejoin="round"/></g></g></svg>