<svg version="1.1" xmlns="http://www.w3.org/2000/svg" xmlns:xlink="http://www.w3.org/1999/xlink" width="18.57143" height="37.5259" viewBox="0,0,18.57143,37.5259"><defs><linearGradient x1="239.18433" y1="167.37007" x2="248.42187" y2="192.71459" gradientUnits="userSpaceOnUse" id="color-1"><stop offset="0" stop-color="#be9311"/><stop offset="1" stop-color="#8d6500"/></linearGradient><radialGradient cx="235.42857" cy="167.4286" r="18.12953" gradientUnits="userSpaceOnUse" id="color-2"><stop offset="0" stop-color="#ffe117"/><stop offset="1" stop-color="#dd9e00"/></radialGradient><radialGradient cx="236.66667" cy="171.00005" r="14.47973" gradientUnits="userSpaceOnUse" id="color-3"><stop offset="0" stop-color="#fffd00"/><stop offset="1" stop-color="#ffcf19"/></radialGradient><linearGradient x1="239.27184" y1="170.3455" x2="239.27184" y2="188.74048" gradientUnits="userSpaceOnUse" id="color-4"><stop offset="0" stop-color="#e2ae13"/><stop offset="1" stop-color="#d69a02"/></linearGradient></defs><g transform="translate(-232.31583,-161.2287)"><g data-paper-data="{&quot;isPaintingLayer&quot;:true}" fill="none" fill-rule="nonzero" stroke="none" stroke-width="none" stroke-linecap="butt" stroke-linejoin="miter" stroke-miterlimit="10" stroke-dasharray="" stroke-dashoffset="0" font-family="none" font-weight="none" font-size="none" text-anchor="none" style="mix-blend-mode: normal"><path d="M239.53321,161.9572c2.67238,-0.73147 7.24056,0.18175 8.8816,4.37001c2.82613,7.21285 2.48346,19.05487 -0.18745,27.26234c-1.4294,4.39241 -5.6435,4.96353 -8.34393,4.55599c-2.33191,-0.35192 -2.6336,-35.56334 -0.35022,-36.18834z" data-paper-data="{&quot;origPos&quot;:null,&quot;origRot&quot;:0}" fill="url(#color-1)" stroke="#654b04" stroke-width="1"/><path d="M234.75997,193.0074c-2.55088,-6.99868 -2.59759,-18.47691 -0.10434,-25.63734c2.49325,-7.16043 6.58234,-7.29155 9.13321,-0.29287c2.55088,6.99868 2.59759,18.47691 0.10434,25.63734c-2.49325,7.16043 -6.58234,7.29155 -9.13321,0.29287z" data-paper-data="{&quot;origPos&quot;:null,&quot;origRot&quot;:0}" fill="url(#color-2)" stroke="#856305" stroke-width="1"/><path d="M235.66882,190.39735c-2.03734,-5.58972 -2.07465,-14.75717 -0.08333,-20.47608c1.99132,-5.71891 5.25719,-5.82363 7.29453,-0.23391c2.03734,5.58972 2.07465,14.75717 0.08333,20.47608c-1.99132,5.71891 -5.25719,5.82363 -7.29453,0.23391z" data-paper-data="{&quot;origPos&quot;:null,&quot;origRot&quot;:0}" fill="url(#color-3)" stroke="#a47a07" stroke-width="1"/><path d="M233.4916,175.42253c0,0 0.0897,-2.08819 0.33649,-3.39757c0.24679,-1.30938 0.87601,-3.03539 0.87601,-3.03539l5.83591,-6.11469c0,0 0.90487,0.71785 1.33296,1.31932c0.42809,0.60147 0.86636,1.6798 0.86636,1.6798z" data-paper-data="{&quot;origRot&quot;:0,&quot;origPos&quot;:null}" fill="#fffbaa" stroke="none" stroke-width="0"/><path d="M238.11139,188.74048v-18.39504h2.32091v18.39504z" data-paper-data="{&quot;origPos&quot;:null}" fill="url(#color-4)" stroke="#a47a07" stroke-width="1"/></g></g></svg>