<svg version="1.1" xmlns="http://www.w3.org/2000/svg" xmlns:xlink="http://www.w3.org/1999/xlink" width="59.62174" height="17.15687" viewBox="0,0,59.62174,17.15687"><defs><linearGradient x1="220.32229" y1="198.12064" x2="220.32229" y2="207.1628" gradientUnits="userSpaceOnUse" id="color-1"><stop offset="0" stop-color="#725c4b"/><stop offset="1" stop-color="#5b412a"/></linearGradient><linearGradient x1="258.70654" y1="198.21318" x2="258.70654" y2="207.25536" gradientUnits="userSpaceOnUse" id="color-2"><stop offset="0" stop-color="#725c4b"/><stop offset="1" stop-color="#5b412a"/></linearGradient><linearGradient x1="240.32161" y1="198.69971" x2="240.32161" y2="200.74913" gradientUnits="userSpaceOnUse" id="color-3"><stop offset="0" stop-color="#846a58"/><stop offset="1" stop-color="#b29072"/></linearGradient><linearGradient x1="240.39714" y1="189.49993" x2="240.39714" y2="199.86357" gradientUnits="userSpaceOnUse" id="color-4"><stop offset="0" stop-color="#d6c0ad"/><stop offset="1" stop-color="#ad947e"/></linearGradient><linearGradient x1="249.55277" y1="191.23547" x2="245.28056" y2="192.76454" gradientUnits="userSpaceOnUse" id="color-5"><stop offset="0" stop-color="#725c4b"/><stop offset="1" stop-color="#5b412a"/></linearGradient><linearGradient x1="232.08688" y1="191.15094" x2="235.52129" y2="192.86114" gradientUnits="userSpaceOnUse" id="color-6"><stop offset="0" stop-color="#725c4b"/><stop offset="1" stop-color="#5b412a"/></linearGradient></defs><g transform="translate(-209.70353,-189.2499)"><g data-paper-data="{&quot;isPaintingLayer&quot;:true}" fill="none" fill-rule="nonzero" stroke="none" stroke-width="none" stroke-linecap="butt" stroke-linejoin="miter" stroke-miterlimit="10" stroke-dasharray="" stroke-dashoffset="0" font-family="none" font-weight="none" font-size="none" text-anchor="none" style="mix-blend-mode: normal"><path d="M253.76763,200.8663c-0.26292,2.15468 -6.15529,3.90652 -13.74822,3.90652c-7.59294,0 -13.67348,-1.74925 -13.74822,-3.90652c-0.15108,-4.36072 7.62382,-3.90652 13.74822,-3.90652c7.59294,0 14.35254,-1.0459 13.74822,3.90652z" data-paper-data="{&quot;origPos&quot;:null}" fill="#e2cbb7" stroke="#b79e89" stroke-width="0.5"/><path d="M230.69106,202.64171c0,2.49692 -1.22745,3.31809 -10.50002,3.4225c-9.26797,0.10437 -10.23751,-0.92557 -10.23751,-3.4225c0,-2.49692 4.64225,-4.52109 10.36876,-4.52109c5.72651,0 10.36876,2.02416 10.36876,4.52109z" data-paper-data="{&quot;origPos&quot;:null}" fill="url(#color-1)" stroke="#2e2318" stroke-width="0.5"/><path d="M269.07527,202.73427c0,2.49692 -1.22745,3.31809 -10.50002,3.4225c-9.26797,0.10437 -10.23752,-0.92557 -10.23752,-3.4225c0,-2.49692 4.64226,-4.52109 10.36877,-4.52109c5.72651,0 10.36877,2.02416 10.36877,4.52109z" data-paper-data="{&quot;origPos&quot;:null}" fill="url(#color-2)" stroke="#2e2318" stroke-width="0.5"/><g data-paper-data="{&quot;origPos&quot;:null}"><path d="M262.53013,198.44924c0,0.56723 -4.51217,1.62494 -11.47318,1.99166c-3.80788,0.20061 -6.8699,-0.23828 -10.73549,-0.23828c-3.42608,0 -6.66589,0.38858 -10.09057,0.35894c-5.59832,-0.04846 -11.06055,-0.63837 -11.06055,-1.33811c0,-0.56593 13.55818,-0.52373 21.15111,-0.52373c7.59293,0 22.20867,-0.81641 22.20867,-0.25048z" data-paper-data="{&quot;origPos&quot;:null}" fill="url(#color-3)" stroke="#654d38" stroke-width="0.5"/><path d="M264.19205,196.94632c0,1.64621 -3.19595,2.44585 -8.60699,2.66764c-5.41739,0.22204 -10.03651,-0.65244 -15.64125,-0.59546c-5.87885,0.05977 -7.22016,0.91065 -14.25195,0.84101c-6.69679,-0.06632 -9.08982,-0.64382 -9.08982,-2.9132c0,-2.47222 1.74878,-2.33228 7.63751,-4.05298c4.39724,-1.28487 9.17288,-3.41606 15.70426,-3.39325c6.53138,0.02281 10.97868,1.5577 15.99102,3.26516c4.62858,1.57673 8.25723,1.80414 8.25723,4.18105z" data-paper-data="{&quot;origPos&quot;:null}" fill="url(#color-4)" stroke="#785f49" stroke-width="0.5"/><g data-paper-data="{&quot;origPos&quot;:null,&quot;index&quot;:null}" stroke="#000000" stroke-width="0"><path d="M246.7696,193.71394c2.50876,0 2.26619,0.79521 2.26619,1.77617c0,0.98095 0.24257,0.83832 -2.26619,0.83832c-2.50876,0 -2.26619,0.14264 -2.26619,-0.83832c0,-0.98095 -0.24257,-1.77617 2.26619,-1.77617z" data-paper-data="{&quot;origPos&quot;:null}" fill="#000000"/><path d="M247.21139,193.94706c0.55338,0 1.00198,0.15981 1.00198,0.35696c0,0.19714 -0.4486,0.35696 -1.00198,0.35696c-0.55338,0 -1.00198,-0.15981 -1.00198,-0.35696c0,-0.19714 0.4486,-0.35696 1.00198,-0.35696z" data-paper-data="{&quot;origPos&quot;:null}" fill="#ffffff"/><path d="M245.78577,194.54495c0.30939,0 0.5602,0.08936 0.5602,0.19957c0,0.11022 -0.25081,0.19957 -0.5602,0.19957c-0.30939,0 -0.5602,-0.08936 -0.5602,-0.19957c0,-0.11022 0.25081,-0.19957 0.5602,-0.19957z" data-paper-data="{&quot;origPos&quot;:null}" fill="#aaaaaa"/></g><g data-paper-data="{&quot;origPos&quot;:null,&quot;index&quot;:null}" stroke="#000000" stroke-width="0"><path d="M234.57623,193.71726c2.50876,0 2.26619,0.79521 2.26619,1.77617c0,0.98095 0.24257,0.90531 -2.26619,0.90531c-2.50876,0 -2.26619,0.07564 -2.26619,-0.90531c0,-0.98095 -0.24257,-1.77617 2.26619,-1.77617z" data-paper-data="{&quot;origPos&quot;:null}" fill="#000000"/><path d="M235.01802,193.95038c0.55337,0 1.00197,0.15981 1.00197,0.35696c0,0.19714 -0.4486,0.35696 -1.00197,0.35696c-0.55338,0 -1.00198,-0.15983 -1.00198,-0.35696c0,-0.19714 0.44861,-0.35696 1.00198,-0.35696z" data-paper-data="{&quot;origPos&quot;:null}" fill="#ffffff"/><path d="M233.5924,194.54828c0.30939,0 0.5602,0.08936 0.5602,0.19957c0,0.11022 -0.25081,0.19957 -0.5602,0.19957c-0.30939,0 -0.5602,-0.08936 -0.5602,-0.19957c0,-0.11022 0.25081,-0.19957 0.5602,-0.19957z" data-paper-data="{&quot;origPos&quot;:null}" fill="#aaaaaa"/></g><path d="M242.76118,192.12485c-1.07638,-0.26874 -1.13353,-0.58023 0.28337,-0.97873c1.41691,-0.3985 3.09095,-0.38416 4.5145,-0.23494c4.31622,0.45242 4.65824,1.80965 4.65824,1.80965c0,0 -1.39596,-0.51749 -2.71304,-0.69709c-0.59268,-0.08082 -2.57419,-0.24019 -3.20077,-0.06397c-1.41691,0.39849 -2.4659,0.43381 -3.54228,0.16507z" data-paper-data="{&quot;origPos&quot;:null,&quot;origRot&quot;:0,&quot;index&quot;:null}" fill="url(#color-5)" stroke="#2e2318" stroke-width="0.5"/><path d="M238.33908,192.25502c-1.20155,0.2152 -2.21971,0.22316 -3.41461,-0.23671c-0.5284,-0.20336 -2.5679,-0.1385 -3.19498,-0.08634c-1.39351,0.1159 -3.03866,0.56191 -3.03866,0.56191c0,0 1.03571,-1.32486 5.53238,-1.57014c1.48307,-0.08091 3.14424,-0.01686 4.33915,0.44302c0,0 0.97826,0.67309 -0.22328,0.88829z" data-paper-data="{&quot;origPos&quot;:null,&quot;origRot&quot;:0,&quot;index&quot;:null}" fill="url(#color-6)" stroke="#2e2318" stroke-width="0.5"/><path d="M228.26378,199.83365c0,0 1.87063,-0.02525 3.33606,-0.18398c2.60829,-0.28254 4.53935,-0.47916 4.53935,-0.47916l-2.77534,1.68408z" data-paper-data="{&quot;origPos&quot;:null}" fill="#ffffff" stroke="#9a9a9a" stroke-width="0.5"/><path d="M246.74709,200.57553l-3.19119,-1.49605c0,0 3.17859,0.19662 4.74727,0.32247c1.5048,0.12071 3.54398,0.15264 3.54398,0.15264z" data-paper-data="{&quot;origPos&quot;:null,&quot;index&quot;:null}" fill="#ffffff" stroke="#9a9a9a" stroke-width="0.5"/></g></g></g></svg>