<svg version="1.1" xmlns="http://www.w3.org/2000/svg" xmlns:xlink="http://www.w3.org/1999/xlink" width="428.6753" height="43.63578" viewBox="0,0,428.6753,43.63578"><defs><radialGradient cx="236.92076" cy="11.25517" r="10.12953" gradientUnits="userSpaceOnUse" id="color-1"><stop offset="0" stop-color="#ffe117"/><stop offset="1" stop-color="#dd9e00"/></radialGradient><radialGradient cx="238.1158" cy="13.11761" r="11.06455" gradientUnits="userSpaceOnUse" id="color-2"><stop offset="0" stop-color="#fffd00"/><stop offset="1" stop-color="#ffcf19"/></radialGradient><linearGradient x1="241.98048" y1="13.21749" x2="241.98048" y2="23.49539" gradientUnits="userSpaceOnUse" id="color-3"><stop offset="0" stop-color="#e2ae13"/><stop offset="1" stop-color="#d69a02"/></linearGradient></defs><g transform="translate(-3.36977,-3.19619)"><g data-paper-data="{&quot;isPaintingLayer&quot;:true}" fill-rule="nonzero" stroke-linecap="butt" stroke-linejoin="miter" stroke-miterlimit="10" stroke-dasharray="" stroke-dashoffset="0" style="mix-blend-mode: normal"><text transform="translate(4.12498,24.61563) scale(0.41667,0.41667)" font-size="40" xml:space="preserve" fill="#ff0000" fill-rule="nonzero" stroke="#000000" stroke-width="2" stroke-linecap="butt" stroke-linejoin="miter" stroke-miterlimit="10" stroke-dasharray="" stroke-dashoffset="0" font-family="Pixel" font-weight="normal" text-anchor="start" style="mix-blend-mode: normal"><tspan x="0" dy="0">HP:                       Time：                 ：           Carbon：        </tspan></text><g><path d="M235.26822,25.78633c-3.79492,-3.91038 -3.86441,-10.32362 -0.15523,-14.32437c3.70919,-4.00075 9.79247,-4.07402 13.58738,-0.16364c3.79492,3.91038 3.86441,10.32362 0.15523,14.32438c-3.70919,4.00075 -9.79247,4.07401 -13.58738,0.16363z" data-paper-data="{&quot;origRot&quot;:0}" fill="url(#color-1)" stroke="#856305" stroke-width="1"/><path d="M236.62029,24.32798c-3.03093,-3.12315 -3.08643,-8.24529 -0.12396,-11.44062c2.96247,-3.19533 7.82107,-3.25384 10.852,-0.13069c3.03093,3.12315 3.08643,8.24529 0.12396,11.44062c-2.96247,3.19533 -7.82107,3.25384 -10.852,0.13069z" data-paper-data="{&quot;origRot&quot;:0}" fill="url(#color-2)" stroke="#a47a07" stroke-width="1"/><path d="M235.94068,26.04456c0,0 -0.63146,-0.47221 -0.98571,-0.891c-0.35424,-0.41879 -0.76872,-1.22463 -0.76872,-1.22463l13.65253,-13.10508c0,0 0.67406,0.53604 1.08485,0.97498c0.41079,0.43894 0.6597,1.02919 0.6597,1.02919z" data-paper-data="{&quot;origRot&quot;:0}" fill="#fff64f" stroke="none" stroke-width="0"/><path d="M240.25408,23.49539v-10.27788h3.45279v10.27788z" fill="url(#color-3)" stroke="#a47a07" stroke-width="1"/></g><text transform="translate(318.22462,42.07933) scale(0.41667,0.41667)" font-size="40" xml:space="preserve" fill="#ff0000" fill-rule="nonzero" stroke="#000000" stroke-width="2" stroke-linecap="butt" stroke-linejoin="miter" stroke-miterlimit="10" stroke-dasharray="" stroke-dashoffset="0" font-family="Pixel" font-weight="normal" text-anchor="start" style="mix-blend-mode: normal"><tspan x="0" dy="0">Credits        </tspan></text></g></g></svg>