<svg version="1.1" xmlns="http://www.w3.org/2000/svg" xmlns:xlink="http://www.w3.org/1999/xlink" width="74.25019" height="38.94529"><defs><linearGradient x1="260.41188" y1="180.00002" x2="239.16251" y2="180.00002" gradientUnits="userSpaceOnUse" id="color-1"><stop offset="0" stop-color="#ffffff"/><stop offset="1" stop-color="#d0d9e2"/></linearGradient><linearGradient x1="219.76251" y1="180.00003" x2="241.01188" y2="180.00003" gradientUnits="userSpaceOnUse" id="color-2"><stop offset="0" stop-color="#ffffff"/><stop offset="1" stop-color="#d0d9e2"/></linearGradient><linearGradient x1="240.00001" y1="190.87766" x2="240.00001" y2="198.97266" gradientUnits="userSpaceOnUse" id="color-3"><stop offset="0" stop-color="#ff8b26"/><stop offset="1" stop-color="#e97823"/></linearGradient><linearGradient x1="240.00001" y1="161.02737" x2="240.00001" y2="169.12237" gradientUnits="userSpaceOnUse" id="color-4"><stop offset="0" stop-color="#ff8b26"/><stop offset="1" stop-color="#e97823"/></linearGradient><linearGradient x1="263.92184" y1="175" x2="263.92184" y2="187.66667" gradientUnits="userSpaceOnUse" id="color-5"><stop offset="0" stop-color="#ffffff"/><stop offset="1" stop-color="#d0d9e2"/></linearGradient><linearGradient x1="216.82797" y1="175" x2="216.82797" y2="187.66667" gradientUnits="userSpaceOnUse" id="color-6"><stop offset="0" stop-color="#ffffff"/><stop offset="1" stop-color="#d0d9e2"/></linearGradient></defs><g transform="translate(-203.24981,-160.52736)"><g data-paper-data="{&quot;isPaintingLayer&quot;:true}" fill="none" fill-rule="nonzero" stroke="none" stroke-width="1" stroke-linecap="butt" stroke-linejoin="miter" stroke-miterlimit="10" stroke-dasharray="" stroke-dashoffset="0" font-family="none" font-weight="none" font-size="none" text-anchor="none" style="mix-blend-mode: normal"><path d="M239.16251,193.53384l11.88953,-14.25043l-11.88953,-12.81721h11.13062l10.11875,12.81721l-10.11875,14.25043z" data-paper-data="{&quot;origPos&quot;:null,&quot;index&quot;:null}" fill="url(#color-1)" stroke="#979ebd"/><path d="M229.88126,193.53383l-10.11875,-14.25043l10.11875,-12.81721h11.13062l-11.88953,12.81721l11.88953,14.25043z" data-paper-data="{&quot;origPos&quot;:null,&quot;index&quot;:null}" fill="url(#color-2)" stroke="#979ebd"/><path d="M219.00361,198.97266v-8.095h41.99279v8.095z" data-paper-data="{&quot;origPos&quot;:null}" fill="url(#color-3)" stroke="#ab4a1a"/><path d="M219.00361,169.12237v-8.095h41.99279v8.095z" data-paper-data="{&quot;origPos&quot;:null}" fill="url(#color-4)" stroke="#ab4a1a"/><path d="M277,166.33333c0,3.4978 -4.64229,21.33334 -13.07816,21.33334c-8.43587,0 -6.68883,-3.41423 -6.68883,-5.33334c0,-2.25243 0.66223,-7.33334 6.68883,-7.33334c8.43587,0 13.07816,-12.16447 13.07816,-8.66666z" data-paper-data="{&quot;origPos&quot;:null}" fill="url(#color-5)" stroke="#979ebd"/><path d="M216.82797,175c6.0266,0 6.68883,5.0809 6.68883,7.33334c0,1.9191 1.74704,5.33334 -6.68883,5.33334c-8.43587,0 -13.07816,-17.83553 -13.07816,-21.33334c0,-3.4978 4.64229,8.66666 13.07816,8.66666z" data-paper-data="{&quot;origPos&quot;:null,&quot;index&quot;:null}" fill="url(#color-6)" stroke="#979ebd"/></g></g></svg>