<svg version="1.1" xmlns="http://www.w3.org/2000/svg" xmlns:xlink="http://www.w3.org/1999/xlink" width="35.39351" height="37.25905" viewBox="0,0,35.39351,37.25905"><defs><radialGradient cx="231" cy="167" r="18.12953" gradientUnits="userSpaceOnUse" id="color-1"><stop offset="0" stop-color="#ffe117"/><stop offset="1" stop-color="#dd9e00"/></radialGradient><radialGradient cx="233.13884" cy="170.33334" r="19.80299" gradientUnits="userSpaceOnUse" id="color-2"><stop offset="0" stop-color="#fffd00"/><stop offset="1" stop-color="#ffcf19"/></radialGradient><linearGradient x1="240.05573" y1="170.51211" x2="240.05573" y2="188.90715" gradientUnits="userSpaceOnUse" id="color-3"><stop offset="0" stop-color="#e2ae13"/><stop offset="1" stop-color="#d69a02"/></linearGradient></defs><g transform="translate(-222.3658,-161.41278)"><g data-paper-data="{&quot;isPaintingLayer&quot;:true}" fill="none" fill-rule="nonzero" stroke="none" stroke-width="none" stroke-linecap="butt" stroke-linejoin="miter" stroke-miterlimit="10" stroke-dasharray="" stroke-dashoffset="0" font-family="none" font-weight="none" font-size="none" text-anchor="none" style="mix-blend-mode: normal"><path d="M228.04232,193.00741c-6.79203,-6.99868 -6.9164,-18.47691 -0.27781,-25.63734c6.6386,-7.16043 17.52627,-7.29155 24.31829,-0.29287c6.79203,6.99868 6.9164,18.47691 0.27781,25.63734c-6.6386,7.16043 -17.52627,7.29155 -24.31829,0.29287z" data-paper-data="{&quot;origPos&quot;:null,&quot;origRot&quot;:0}" fill="url(#color-1)" stroke="#856305" stroke-width="1"/><path d="M230.46222,190.3973c-5.42467,-5.58972 -5.524,-14.75717 -0.22187,-20.47608c5.30214,-5.71891 13.99792,-5.82363 19.42258,-0.23391c5.42467,5.58972 5.524,14.75717 0.22187,20.47608c-5.30214,5.71891 -13.99792,5.82363 -19.42258,0.23391z" data-paper-data="{&quot;origPos&quot;:null,&quot;origRot&quot;:0}" fill="url(#color-2)" stroke="#a47a07" stroke-width="1"/><path d="M229.24587,193.46957c0,0 -1.13017,-0.84515 -1.76419,-1.59469c-0.63402,-0.74954 -1.37583,-2.19181 -1.37583,-2.19181l24.4349,-23.45509c0,0 1.20641,0.9594 1.94163,1.74499c0.73522,0.78559 1.18071,1.84202 1.18071,1.84202z" data-paper-data="{&quot;origRot&quot;:0,&quot;origPos&quot;:null}" fill="#fff64f" stroke="none" stroke-width="0"/><path d="M236.96588,188.90715v-18.39504h6.17971v18.39504z" data-paper-data="{&quot;origPos&quot;:null}" fill="url(#color-3)" stroke="#a47a07" stroke-width="1"/></g></g></svg>