<svg version="1.1" xmlns="http://www.w3.org/2000/svg" xmlns:xlink="http://www.w3.org/1999/xlink" width="48.09002" height="58.93062" viewBox="0,0,48.09002,58.93062"><defs><linearGradient x1="247.27745" y1="191.47891" x2="247.27745" y2="205.52268" gradientUnits="userSpaceOnUse" id="color-1"><stop offset="0" stop-color="#725c4b"/><stop offset="1" stop-color="#5b412a"/></linearGradient><linearGradient x1="240.85965" y1="196.96211" x2="240.85965" y2="211.00588" gradientUnits="userSpaceOnUse" id="color-2"><stop offset="0" stop-color="#725c4b"/><stop offset="1" stop-color="#5b412a"/></linearGradient><linearGradient x1="240.32151" y1="181.38764" x2="240.32151" y2="188.18621" gradientUnits="userSpaceOnUse" id="color-3"><stop offset="0" stop-color="#846a58"/><stop offset="1" stop-color="#b29072"/></linearGradient><linearGradient x1="240.39706" y1="150.869" x2="240.39706" y2="185.24852" gradientUnits="userSpaceOnUse" id="color-4"><stop offset="0" stop-color="#d6c0ad"/><stop offset="1" stop-color="#ad947e"/></linearGradient><linearGradient x1="247.16659" y1="159.97166" x2="247.16659" y2="166.60348" gradientUnits="userSpaceOnUse" id="color-5"><stop offset="0" stop-color="#725c4b"/><stop offset="1" stop-color="#5b412a"/></linearGradient><linearGradient x1="233.929" y1="159.86667" x2="233.929" y2="166.49851" gradientUnits="userSpaceOnUse" id="color-6"><stop offset="0" stop-color="#725c4b"/><stop offset="1" stop-color="#5b412a"/></linearGradient></defs><g transform="translate(-216.35202,-150.619)"><g data-paper-data="{&quot;isPaintingLayer&quot;:true}" fill="none" fill-rule="nonzero" stroke="none" stroke-width="none" stroke-linecap="butt" stroke-linejoin="miter" stroke-miterlimit="10" stroke-dasharray="" stroke-dashoffset="0" font-family="none" font-weight="none" font-size="none" text-anchor="none" style="mix-blend-mode: normal"><path d="M253.76752,193.5639c-0.26292,5.12475 -6.15529,9.29138 -13.74822,9.29138c-7.59294,0 -13.67348,-4.16044 -13.74822,-9.29138c-0.15108,-10.37165 7.62382,-9.29138 13.74822,-9.29138c7.59294,0 14.35254,-2.4876 13.74822,9.29138z" data-paper-data="{&quot;origPos&quot;:null}" fill="#e2cbb7" stroke="#b79e89" stroke-width="0.5"/><path d="M257.64624,198.50079c0,3.87808 -1.22745,5.15346 -10.50002,5.31563c-9.26797,0.16209 -10.23751,-1.43755 -10.23751,-5.31563c0,-3.87808 4.64225,-7.02189 10.36876,-7.02189c5.72651,0 10.36876,3.14381 10.36876,7.02189z" data-paper-data="{&quot;origPos&quot;:null}" fill="url(#color-1)" stroke="#2e2318" stroke-width="0.5"/><path d="M251.22839,203.98399c0,3.87808 -1.22745,5.15346 -10.50002,5.31563c-9.26797,0.16209 -10.23752,-1.43755 -10.23752,-5.31563c0,-3.87808 4.64226,-7.02188 10.36877,-7.02188c5.72651,0 10.36877,3.1438 10.36877,7.02188z" data-paper-data="{&quot;origPos&quot;:null}" fill="url(#color-2)" stroke="#2e2318" stroke-width="0.5"/><g data-paper-data="{&quot;origPos&quot;:null}"><path d="M262.53013,180.5567c0,1.88169 -4.51217,5.39045 -11.47318,6.60699c-3.80788,0.66549 -6.8699,-0.79044 -10.73549,-0.79044c-3.42608,0 -6.66589,1.28902 -10.09057,1.19071c-5.59832,-0.16071 -11.06055,-2.11772 -11.06055,-4.43892c0,-1.87737 13.55818,-1.73741 21.15111,-1.73741c7.59293,0 22.20867,-2.70831 22.20867,-0.83094z" data-paper-data="{&quot;origPos&quot;:null}" fill="url(#color-3)" stroke="#654d38" stroke-width="0.5"/><path d="M264.19203,175.57108c0,5.46099 -3.19595,8.11369 -8.60699,8.84943c-5.41739,0.73661 -10.03651,-2.16435 -15.64125,-1.97532c-5.87885,0.19827 -7.22016,3.02091 -14.25195,2.7899c-6.69679,-0.22 -9.08982,-2.13575 -9.08982,-9.66401c0,-8.20115 1.74878,-7.73695 7.63751,-13.445c4.39724,-4.26233 9.17288,-11.33216 15.70426,-11.25648c6.53138,0.07567 10.97868,5.16743 15.99102,10.83158c4.62858,5.23048 8.25723,5.98493 8.25723,13.8699z" data-paper-data="{&quot;origPos&quot;:null}" fill="url(#color-4)" stroke="#785f49" stroke-width="0.5"/><g data-paper-data="{&quot;origPos&quot;:null,&quot;index&quot;:null}" fill="#000000" stroke="#000000" stroke-width="0"><path d="M246.76953,168.27679c2.50876,0 2.26619,-0.7906 2.26619,2.46352c0,3.25411 0.24257,5.89209 -2.26619,5.89209c-2.50876,0 -2.26619,-2.63797 -2.26619,-5.89209c0,-3.25412 -0.24257,-2.46352 2.26619,-2.46352z" data-paper-data="{&quot;origPos&quot;:null}"/></g><g data-paper-data="{&quot;origPos&quot;:null,&quot;index&quot;:null}" fill="#000000" stroke="#000000" stroke-width="0"><path d="M234.57616,168.28782c2.50876,0 2.26619,-0.7906 2.26619,2.46352c0,3.25411 0.24257,5.89209 -2.26619,5.89209c-2.50876,0 -2.26619,-2.63797 -2.26619,-5.89209c0,-3.25412 -0.24257,-2.46352 2.26619,-2.46352z" data-paper-data="{&quot;origPos&quot;:null}"/></g><path d="M243.87255,166.60333c-1.39758,0.01153 -2.10695,-0.74198 -1.87481,-2.66584c0.23214,-1.92387 1.5432,-2.96589 2.95088,-3.50434c4.26813,-1.63258 7.43016,1.59078 7.43016,1.59078c0,0 -2.17359,-0.41374 -3.56477,-0.02096c-0.62603,0.17675 -2.48219,1.04885 -2.58485,1.89961c-0.23215,1.92386 -0.95901,2.68922 -2.3566,2.70075z" data-paper-data="{&quot;origPos&quot;:null,&quot;origRot&quot;:0,&quot;index&quot;:null}" fill="url(#color-5)" stroke="#2e2318" stroke-width="0.5"/><path d="M237.223,166.49838c-1.3976,-0.00801 -2.12445,-0.77688 -2.3566,-2.70075c-0.10266,-0.85076 -1.95881,-1.72286 -2.58485,-1.89961c-1.39117,-0.39279 -3.56477,0.02096 -3.56477,0.02096c0,0 3.16204,-3.22336 7.43016,-1.59078c1.40769,0.53844 2.71873,1.58046 2.95088,3.50433c0,0 0.13814,2.67738 -1.87482,2.66585z" data-paper-data="{&quot;origPos&quot;:null,&quot;origRot&quot;:0,&quot;index&quot;:null}" fill="url(#color-6)" stroke="#2e2318" stroke-width="0.5"/><path d="M228.26371,185.14929c0,0 1.87063,-0.08372 3.33606,-0.61031c2.60829,-0.93727 4.53935,-1.58952 4.53935,-1.58952l-2.77534,5.58662z" data-paper-data="{&quot;origPos&quot;:null}" fill="#ffffff" stroke="#9a9a9a" stroke-width="0.5"/><path d="M246.74701,187.61033l-3.19119,-4.96285c0,0 3.17859,0.65224 4.74727,1.06971c1.5048,0.40047 3.54398,0.50635 3.54398,0.50635z" data-paper-data="{&quot;origPos&quot;:null,&quot;index&quot;:null}" fill="#ffffff" stroke="#9a9a9a" stroke-width="0.5"/></g><path d="M245.7857,168.31928c0.30939,0 0.5602,0.29641 0.5602,0.66205c0,0.36564 -0.25081,0.66205 -0.5602,0.66205c-0.30939,0 -0.5602,-0.29641 -0.5602,-0.66205c0,-0.36564 0.25081,-0.66205 0.5602,-0.66205z" data-paper-data="{&quot;origPos&quot;:null}" fill="#aaaaaa" stroke="#000000" stroke-width="0"/><path d="M233.59235,168.33033c0.30939,0 0.5602,0.29641 0.5602,0.66205c0,0.36564 -0.25081,0.66205 -0.5602,0.66205c-0.30939,0 -0.5602,-0.29641 -0.5602,-0.66205c0,-0.36564 0.25081,-0.66205 0.5602,-0.66205z" data-paper-data="{&quot;origPos&quot;:null}" fill="#aaaaaa" stroke="#000000" stroke-width="0"/></g></g></svg>