<svg version="1.1" xmlns="http://www.w3.org/2000/svg" xmlns:xlink="http://www.w3.org/1999/xlink" width="18.57143" height="37.5259" viewBox="0,0,18.57143,37.5259"><defs><linearGradient x1="240.51876" y1="167.37007" x2="231.28121" y2="192.71454" gradientUnits="userSpaceOnUse" id="color-1"><stop offset="0" stop-color="#be9311"/><stop offset="1" stop-color="#8d6500"/></linearGradient><radialGradient cx="236.28572" cy="167.85714" r="18.12953" gradientUnits="userSpaceOnUse" id="color-2"><stop offset="0" stop-color="#ffe117"/><stop offset="1" stop-color="#dd9e00"/></radialGradient><radialGradient cx="237.83333" cy="170.33333" r="14.47973" gradientUnits="userSpaceOnUse" id="color-3"><stop offset="0" stop-color="#fffd00"/><stop offset="1" stop-color="#ffcf19"/></radialGradient><linearGradient x1="240.43124" y1="170.34544" x2="240.43124" y2="188.74048" gradientUnits="userSpaceOnUse" id="color-4"><stop offset="0" stop-color="#e2ae13"/><stop offset="1" stop-color="#d69a02"/></linearGradient></defs><g transform="translate(-228.81584,-161.2287)"><g data-paper-data="{&quot;isPaintingLayer&quot;:true}" fill="none" fill-rule="nonzero" stroke="none" stroke-width="none" stroke-linecap="butt" stroke-linejoin="miter" stroke-miterlimit="10" stroke-dasharray="" stroke-dashoffset="0" font-family="none" font-weight="none" font-size="none" text-anchor="none" style="mix-blend-mode: normal"><path d="M239.81966,198.14554c-2.70043,0.40754 -6.91453,-0.16358 -8.34393,-4.55599c-2.67091,-8.20747 -3.01358,-20.04949 -0.18745,-27.26234c1.64104,-4.18826 6.20922,-5.10148 8.8816,-4.37001c2.28338,0.625 1.98169,35.83642 -0.35022,36.18834z" data-paper-data="{&quot;origPos&quot;:null,&quot;origRot&quot;:0,&quot;index&quot;:null}" fill="url(#color-1)" stroke="#654b04" stroke-width="1"/><path d="M235.80991,192.71453c-2.49325,-7.16043 -2.44654,-18.63866 0.10434,-25.63734c2.55087,-6.99868 6.63996,-6.86756 9.13321,0.29287c2.49325,7.16043 2.44654,18.63866 -0.10434,25.63734c-2.55087,6.99868 -6.63996,6.86756 -9.13321,-0.29287z" data-paper-data="{&quot;origPos&quot;:null,&quot;origRot&quot;:0,&quot;index&quot;:null}" fill="url(#color-2)" stroke="#856305" stroke-width="1"/><path d="M236.73974,190.16338c-1.99132,-5.71891 -1.95401,-14.88636 0.08333,-20.47608c2.03734,-5.58972 5.30321,-5.485 7.29453,0.23391c1.99132,5.71891 1.95401,14.88636 -0.08333,20.47608c-2.03734,5.58972 -5.30321,5.485 -7.29453,-0.23391z" data-paper-data="{&quot;origPos&quot;:null,&quot;origRot&quot;:0,&quot;index&quot;:null}" fill="url(#color-3)" stroke="#a47a07" stroke-width="1"/><path d="M238.98252,197.15889c0,0 -0.93737,-0.93046 -1.43503,-1.65414c-0.49766,-0.72368 -0.8252,-1.98791 -0.8252,-1.98791l9.66318,-9.56015c0,0 -0.22097,2.26406 -0.38568,3.33495c-0.20205,1.3137 -0.62682,2.86619 -0.62682,2.86619z" data-paper-data="{&quot;origRot&quot;:0,&quot;origPos&quot;:null}" fill="#ffda13" stroke="none" stroke-width="0"/><path d="M239.27079,188.74048v-18.39504h2.32091v18.39504z" data-paper-data="{&quot;origPos&quot;:null,&quot;index&quot;:null}" fill="url(#color-4)" stroke="#a47a07" stroke-width="1"/></g></g></svg>