<svg version="1.1" xmlns="http://www.w3.org/2000/svg" xmlns:xlink="http://www.w3.org/1999/xlink" width="720" height="540" viewBox="0,0,720,540"><defs><linearGradient x1="236.86627" y1="151.14891" x2="241.02001" y2="206.53858" gradientUnits="userSpaceOnUse" id="color-1"><stop offset="0" stop-color="#62ffff"/><stop offset="0.00671" stop-color="#61feff"/><stop offset="0.01342" stop-color="#61feff"/><stop offset="0.02013" stop-color="#61feff"/><stop offset="0.02685" stop-color="#61feff"/><stop offset="0.03356" stop-color="#61feff"/><stop offset="0.04027" stop-color="#61feff"/><stop offset="0.04698" stop-color="#61feff"/><stop offset="0.05369" stop-color="#61feff"/><stop offset="0.0604" stop-color="#61feff"/><stop offset="0.06711" stop-color="#61feff"/><stop offset="0.07383" stop-color="#61fdff"/><stop offset="0.08054" stop-color="#61fdff"/><stop offset="0.08725" stop-color="#61fdff"/><stop offset="0.09396" stop-color="#60fdff"/><stop offset="0.10067" stop-color="#60fcff"/><stop offset="0.10738" stop-color="#60fcff"/><stop offset="0.11409" stop-color="#60fcff"/><stop offset="0.12081" stop-color="#60fcff"/><stop offset="0.12752" stop-color="#60fbff"/><stop offset="0.13423" stop-color="#60fbff"/><stop offset="0.14094" stop-color="#5ffbff"/><stop offset="0.14765" stop-color="#5ffaff"/><stop offset="0.15436" stop-color="#5ffaff"/><stop offset="0.16107" stop-color="#5ffaff"/><stop offset="0.16779" stop-color="#5ff9ff"/><stop offset="0.1745" stop-color="#5ef9ff"/><stop offset="0.18121" stop-color="#5ef8ff"/><stop offset="0.18792" stop-color="#5ef8ff"/><stop offset="0.19463" stop-color="#5ef8ff"/><stop offset="0.20134" stop-color="#5df7ff"/><stop offset="0.20805" stop-color="#5df7ff"/><stop offset="0.21477" stop-color="#5df6ff"/><stop offset="0.22148" stop-color="#5cf6ff"/><stop offset="0.22819" stop-color="#5cf5ff"/><stop offset="0.2349" stop-color="#5cf5ff"/><stop offset="0.24161" stop-color="#5cf4ff"/><stop offset="0.24832" stop-color="#5bf3ff"/><stop offset="0.25503" stop-color="#5bf3ff"/><stop offset="0.26175" stop-color="#5bf2ff"/><stop offset="0.26846" stop-color="#5af2ff"/><stop offset="0.27517" stop-color="#5af1ff"/><stop offset="0.28188" stop-color="#5af1ff"/><stop offset="0.28859" stop-color="#59f0ff"/><stop offset="0.2953" stop-color="#59efff"/><stop offset="0.30201" stop-color="#58efff"/><stop offset="0.30873" stop-color="#58eeff"/><stop offset="0.31544" stop-color="#58edff"/><stop offset="0.32215" stop-color="#57edff"/><stop offset="0.32886" stop-color="#57ecff"/><stop offset="0.33557" stop-color="#57ebff"/><stop offset="0.34228" stop-color="#56eaff"/><stop offset="0.34899" stop-color="#56eaff"/><stop offset="0.35571" stop-color="#55e9ff"/><stop offset="0.36242" stop-color="#55e8ff"/><stop offset="0.36913" stop-color="#54e7ff"/><stop offset="0.37584" stop-color="#54e7ff"/><stop offset="0.38255" stop-color="#53e6ff"/><stop offset="0.38926" stop-color="#53e5ff"/><stop offset="0.39597" stop-color="#53e4ff"/><stop offset="0.40269" stop-color="#52e3ff"/><stop offset="0.4094" stop-color="#52e2ff"/><stop offset="0.41611" stop-color="#51e2ff"/><stop offset="0.42282" stop-color="#51e1ff"/><stop offset="0.42953" stop-color="#50e0ff"/><stop offset="0.43624" stop-color="#50dfff"/><stop offset="0.44295" stop-color="#4fdeff"/><stop offset="0.44966" stop-color="#4fddff"/><stop offset="0.45638" stop-color="#4edcff"/><stop offset="0.46309" stop-color="#4ddbff"/><stop offset="0.4698" stop-color="#4ddaff"/><stop offset="0.47651" stop-color="#4cd9ff"/><stop offset="0.48322" stop-color="#4cd8ff"/><stop offset="0.48993" stop-color="#4bd7ff"/><stop offset="0.49664" stop-color="#4bd6ff"/><stop offset="0.50336" stop-color="#4ad5ff"/><stop offset="0.51007" stop-color="#49d4ff"/><stop offset="0.51678" stop-color="#49d3ff"/><stop offset="0.52349" stop-color="#48d2ff"/><stop offset="0.5302" stop-color="#48d1ff"/><stop offset="0.53691" stop-color="#47d0ff"/><stop offset="0.54362" stop-color="#46cfff"/><stop offset="0.55034" stop-color="#46ceff"/><stop offset="0.55705" stop-color="#45ccff"/><stop offset="0.56376" stop-color="#44cbff"/><stop offset="0.57047" stop-color="#44caff"/><stop offset="0.57718" stop-color="#43c9ff"/><stop offset="0.58389" stop-color="#43c8ff"/><stop offset="0.5906" stop-color="#42c7ff"/><stop offset="0.59732" stop-color="#41c5ff"/><stop offset="0.60403" stop-color="#40c4ff"/><stop offset="0.61074" stop-color="#40c3ff"/><stop offset="0.61745" stop-color="#3fc2ff"/><stop offset="0.62416" stop-color="#3ec1ff"/><stop offset="0.63087" stop-color="#3ebfff"/><stop offset="0.63758" stop-color="#3dbeff"/><stop offset="0.64429" stop-color="#3cbdff"/><stop offset="0.65101" stop-color="#3bbbff"/><stop offset="0.65772" stop-color="#3bbaff"/><stop offset="0.66443" stop-color="#3ab9ff"/><stop offset="0.67114" stop-color="#39b7ff"/><stop offset="0.67785" stop-color="#38b6ff"/><stop offset="0.68456" stop-color="#38b5ff"/><stop offset="0.69128" stop-color="#37b3ff"/><stop offset="0.69799" stop-color="#36b2ff"/><stop offset="0.7047" stop-color="#35b1ff"/><stop offset="0.71141" stop-color="#35afff"/><stop offset="0.71812" stop-color="#34aeff"/><stop offset="0.72483" stop-color="#33acff"/><stop offset="0.73154" stop-color="#32abff"/><stop offset="0.73826" stop-color="#31aaff"/><stop offset="0.74497" stop-color="#31a8ff"/><stop offset="0.75168" stop-color="#30a7ff"/><stop offset="0.75839" stop-color="#2fa5ff"/><stop offset="0.7651" stop-color="#2ea4ff"/><stop offset="0.77181" stop-color="#2da2ff"/><stop offset="0.77852" stop-color="#2ca1ff"/><stop offset="0.78524" stop-color="#2b9fff"/><stop offset="0.79195" stop-color="#2b9eff"/><stop offset="0.79866" stop-color="#2a9cff"/><stop offset="0.80537" stop-color="#299bff"/><stop offset="0.81208" stop-color="#2899ff"/><stop offset="0.81879" stop-color="#2797ff"/><stop offset="0.8255" stop-color="#2696ff"/><stop offset="0.83222" stop-color="#2594ff"/><stop offset="0.83893" stop-color="#2493ff"/><stop offset="0.84564" stop-color="#2391ff"/><stop offset="0.85235" stop-color="#238fff"/><stop offset="0.85906" stop-color="#228eff"/><stop offset="0.86577" stop-color="#218cff"/><stop offset="0.87248" stop-color="#208aff"/><stop offset="0.8792" stop-color="#1f89ff"/><stop offset="0.88591" stop-color="#1e87ff"/><stop offset="0.89262" stop-color="#1d85ff"/><stop offset="0.89933" stop-color="#1c84ff"/><stop offset="0.90604" stop-color="#1b82ff"/><stop offset="0.91275" stop-color="#1a80ff"/><stop offset="0.91946" stop-color="#197eff"/><stop offset="0.92618" stop-color="#187dff"/><stop offset="0.93289" stop-color="#177bff"/><stop offset="0.9396" stop-color="#1679ff"/><stop offset="0.94631" stop-color="#1577ff"/><stop offset="0.95302" stop-color="#1475ff"/><stop offset="0.95973" stop-color="#1374ff"/><stop offset="0.96644" stop-color="#1272ff"/><stop offset="0.97315" stop-color="#1170ff"/><stop offset="0.97987" stop-color="#106eff"/><stop offset="0.98658" stop-color="#0f6cff"/><stop offset="0.99329" stop-color="#0e6aff"/><stop offset="1" stop-color="#0d69ff"/></linearGradient><clipPath id="clip-1"><rect x="-240" y="-180" transform="scale(0.5,0.5)" width="1440" height="1080" fill="none" fill-rule="nonzero" stroke-width="0.5"/></clipPath></defs><g transform="translate(120,90)"><g clip-path="url(#clip-1)" data-paper-data="{&quot;isPaintingLayer&quot;:true}" stroke="none" stroke-linecap="butt" stroke-linejoin="miter" stroke-miterlimit="10" stroke-dasharray="" stroke-dashoffset="0" style="mix-blend-mode: normal"><path d="M168.33312,180.99786l-2.53617,0.39743c-0.88761,0.13635 -1.4991,0.39425 -1.83538,0.77265c-0.33627,0.3784 -0.50395,0.90794 -0.50395,1.58968c0,0.59719 0.18226,1.08551 0.54861,1.46391c0.36543,0.3784 0.84752,0.5676 1.44807,0.5676c0.83567,0 1.52462,-0.34035 2.06594,-1.02103c0.54132,-0.68175 0.81289,-1.53684 0.81289,-2.56633zM227.14169,179.18092v6.1315h2.34935c1.02431,0 1.81533,-0.27376 2.37396,-0.82339c0.55772,-0.54857 0.83658,-1.31064 0.83658,-2.28729c0,-2.01354 -1.17832,-3.02084 -3.53405,-3.02084zM297.80912,176.28587c-1.01793,0 -1.82079,0.44076 -2.40768,1.32333c-0.58779,0.88152 -0.88124,2.08329 -0.88124,3.60428c0,1.40049 0.28251,2.5082 0.84661,3.32101c0.56501,0.81387 1.31684,1.2208 2.2564,1.2208c0.9268,0 1.6841,-0.39954 2.27189,-1.19755c0.58688,-0.79907 0.88032,-1.79263 0.88032,-2.98067v-1.74824c0,-1.0073 -0.28524,-1.84865 -0.85663,-2.52617c-0.57048,-0.67752 -1.27401,-1.0168 -2.10968,-1.0168zM198.58128,176.28587c-1.07626,0 -1.92651,0.42807 -2.54984,1.28317c-0.62334,0.8551 -0.935,2.02833 -0.935,3.51973c0,1.44594 0.31531,2.58536 0.94503,3.41825c0.62971,0.83184 1.47632,1.24828 2.53982,1.24828c1.0963,0 1.93197,-0.40693 2.5061,-1.2208c0.57504,-0.81282 0.8621,-1.98077 0.8621,-3.50281c0,-1.52839 -0.28706,-2.70163 -0.8621,-3.51973c-0.57412,-0.81704 -1.40979,-1.22609 -2.5061,-1.22609zM186.25401,176.28587c-0.93956,0 -1.71508,0.39002 -2.32475,1.17007c-0.61058,0.77899 -0.91587,1.77043 -0.91587,2.97433v1.70279c0,1.01469 0.28433,1.8719 0.85207,2.57267c0.56775,0.69972 1.27948,1.04958 2.13428,1.04958c1.01793,0 1.81442,-0.45449 2.38854,-1.36244c0.57412,-0.90794 0.86119,-2.16468 0.86119,-3.76917c0,-1.32544 -0.26792,-2.37925 -0.80286,-3.16247c-0.53494,-0.78322 -1.26581,-1.17536 -2.19261,-1.17536zM138.25265,176.28587c-1.07626,0 -1.92651,0.42807 -2.54984,1.28317c-0.62334,0.8551 -0.935,2.02833 -0.935,3.51973c0,1.44594 0.31531,2.58536 0.94503,3.41825c0.62971,0.83184 1.47632,1.24828 2.53982,1.24828c1.0963,0 1.93197,-0.40693 2.5061,-1.2208c0.57504,-0.81282 0.8621,-1.98077 0.8621,-3.50281c0,-1.52839 -0.28706,-2.70163 -0.8621,-3.51973c-0.57412,-0.81704 -1.40979,-1.22609 -2.5061,-1.22609zM371.83655,176.24042c-0.76368,0 -1.42438,0.32978 -1.9821,0.98827c-0.55863,0.65849 -0.90949,1.51782 -1.05256,2.5769h5.65832c-0.00638,-1.13519 -0.23876,-2.01354 -0.69533,-2.63398c-0.45657,-0.62044 -1.09995,-0.93119 -1.92833,-0.93119zM320.89439,176.24042c-0.76368,0 -1.42438,0.32978 -1.9821,0.98827c-0.55863,0.65849 -0.90949,1.51782 -1.05256,2.5769h5.65832c-0.00638,-1.13519 -0.23876,-2.01354 -0.69533,-2.63398c-0.45657,-0.62044 -1.09995,-0.93119 -1.92833,-0.93119zM241.7928,176.24042c-0.76368,0 -1.42438,0.32978 -1.9821,0.98827c-0.55863,0.65849 -0.90949,1.51782 -1.05256,2.5769h5.65832c-0.00638,-1.13519 -0.23876,-2.01354 -0.69533,-2.63398c-0.45657,-0.62044 -1.09995,-0.93119 -1.92833,-0.93119zM119.03944,176.24042c-0.76359,0 -1.42438,0.32978 -1.98237,0.98827c-0.55799,0.65849 -0.90876,1.51782 -1.05229,2.5769h5.65822c-0.00647,-1.13519 -0.23822,-2.01354 -0.69506,-2.63398c-0.45684,-0.62044 -1.09968,-0.93119 -1.92851,-0.93119zM347.56749,174.74163h1.89917v7.18742c0,2.55048 0.84205,3.82625 2.52615,3.82625c0.83476,0 1.51095,-0.35726 2.02584,-1.07283c0.5158,-0.71557 0.7737,-1.61823 0.7737,-2.70797v-7.23287h1.92833v12.55791h-1.92833v-1.97549h-0.03919c-0.72449,1.51359 -1.8372,2.27038 -3.33812,2.27038c-2.56533,0 -3.84755,-1.77888 -3.84755,-5.3356zM304.5601,174.74163h2.0951l2.6428,8.97054c0.21598,0.71875 0.34265,1.32016 0.38184,1.80531h0.04921c0.06561,-0.6363 0.17953,-1.22292 0.34265,-1.75986l2.77038,-9.01599h2.01673l-4.28771,12.55791h-1.93835zM364.97348,174.526c0.43743,0 0.7737,0.05708 1.00882,0.17017v2.24819c-0.31987,-0.26424 -0.76094,-0.39743 -1.32231,-0.39743c-0.74363,0 -1.35694,0.40377 -1.83993,1.20918c-0.48299,0.80647 -0.72449,1.86767 -0.72449,3.18466v6.35876h-1.9183v-12.55791h1.9183v2.55471h0.03919c0.54861,-1.84653 1.49455,-2.77033 2.83873,-2.77033zM178.15521,174.526c0.43743,0 0.7737,0.05708 1.00882,0.17017v2.24819c-0.31987,-0.26424 -0.76094,-0.39743 -1.3214,-0.39743c-0.74454,0 -1.35785,0.40377 -1.84084,1.20918c-0.48299,0.80647 -0.72449,1.86767 -0.72449,3.18466v6.35876h-1.9183v-12.55791h1.9183v2.55471h0.03919c0.54861,-1.84653 1.49455,-2.77033 2.83873,-2.77033zM130.94942,174.526c0.43743,0 0.7737,0.05708 1.00882,0.17017v2.24819c-0.31987,-0.26424 -0.76094,-0.39743 -1.3214,-0.39743c-0.74454,0 -1.35794,0.40377 -1.84084,1.20918c-0.48299,0.80647 -0.7244,1.86767 -0.7244,3.18466v6.35876h-1.91876v-12.55791h1.91876v2.55471h0.0391c0.54824,-1.84653 1.49455,-2.77033 2.83873,-2.77033zM371.86571,174.44673c1.41617,0 2.5225,0.52743 3.31899,1.58335c0.79557,1.05697 1.19381,2.53462 1.19381,4.43401v1.12462h-7.57662c0.03281,1.33919 0.34903,2.37502 0.94958,3.10539c0.60055,0.73037 1.43896,1.09502 2.51612,1.09502c1.21386,0 2.32657,-0.45027 3.33812,-1.35081v1.98711c-0.95323,0.78004 -2.2163,1.16901 -3.78922,1.16901c-1.56563,0 -2.78769,-0.57499 -3.66619,-1.72498c-0.87759,-1.15105 -1.31593,-2.74813 -1.31593,-4.79232c0,-1.92264 0.48117,-3.50809 1.44351,-4.75744c0.96234,-1.24828 2.15889,-1.87296 3.58782,-1.87296zM333.42762,174.44673c1.18835,0 2.09236,0.44076 2.71205,1.32228c0.61969,0.88257 0.93045,2.16679 0.93045,3.85478v7.67574h-1.90919v-7.14198c0,-2.58113 -0.81289,-3.8717 -2.43775,-3.8717c-0.84205,0 -1.53373,0.3636 -2.07505,1.08974c-0.54223,0.72719 -0.81289,1.64676 -0.81289,2.75976v7.16417h-1.9183v-12.55791h1.9183v2.07801h0.03919c0.81562,-1.58229 2.00032,-2.3729 3.55319,-2.3729zM320.92356,174.44673c1.41617,0 2.5225,0.52743 3.31899,1.58335c0.79557,1.05697 1.19381,2.53462 1.19381,4.43401v1.12462h-7.57662c0.03281,1.33919 0.34903,2.37502 0.94958,3.10539c0.60055,0.73037 1.43896,1.09502 2.51612,1.09502c1.21386,0 2.32657,-0.45027 3.33812,-1.35081v1.98711c-0.95323,0.78004 -2.2163,1.16901 -3.78922,1.16901c-1.56563,0 -2.78769,-0.57499 -3.66619,-1.72498c-0.87759,-1.15105 -1.31593,-2.74813 -1.31593,-4.79232c0,-1.92264 0.48117,-3.50809 1.44351,-4.75744c0.96234,-1.24828 2.15889,-1.87296 3.58782,-1.87296zM267.56461,174.44673c0.92042,0 1.77523,0.18497 2.56533,0.55597v2.14671c-0.80924,-0.60564 -1.72693,-0.909 -2.75124,-0.909c-0.61331,0 -1.11271,0.15538 -1.49728,0.46613c-0.38548,0.30969 -0.57777,0.71875 -0.57777,1.22609c0,0.49889 0.13852,0.88891 0.41556,1.16901c0.27795,0.2801 0.89308,0.63947 1.8454,1.07917c1.20748,0.52214 2.02311,1.06331 2.44778,1.62351c0.42376,0.5602 0.63609,1.25251 0.63609,2.07801c0,1.14999 -0.40644,2.05687 -1.21842,2.71854c-0.81289,0.66272 -1.86545,0.99356 -3.15768,0.99356c-1.12273,0 -2.10148,-0.24522 -2.93624,-0.73776v-2.27038c0.96508,0.80964 2.0067,1.21446 3.12214,1.21446c1.49455,0 2.24182,-0.5676 2.24182,-1.70279c0,-0.48515 -0.16312,-0.88363 -0.48937,-1.19755c-0.32625,-0.31498 -0.98877,-0.68704 -1.98756,-1.11934c-1.20019,-0.5602 -1.98027,-1.11405 -2.33933,-1.66262c-0.35906,-0.54963 -0.53858,-1.21341 -0.53858,-1.99345c0,-1.11194 0.40644,-2.00402 1.21933,-2.67309c0.81198,-0.67012 1.81259,-1.00518 3.00003,-1.00518zM241.82197,174.44673c1.41617,0 2.5225,0.52743 3.31899,1.58335c0.79557,1.05697 1.19381,2.53462 1.19381,4.43401v1.12462h-7.57662c0.03281,1.33919 0.34903,2.37502 0.94958,3.10539c0.60055,0.73037 1.43896,1.09502 2.51612,1.09502c1.21386,0 2.32657,-0.45027 3.33812,-1.35081v1.98711c-0.95323,0.78004 -2.2163,1.16901 -3.78922,1.16901c-1.56563,0 -2.78769,-0.57499 -3.66619,-1.72498c-0.87759,-1.15105 -1.31593,-2.74813 -1.31593,-4.79232c0,-1.92264 0.48117,-3.50809 1.44351,-4.75744c0.96234,-1.24828 2.15889,-1.87296 3.58782,-1.87296zM212.13244,174.44673c1.18835,0 2.09236,0.44076 2.71205,1.32228c0.61969,0.88257 0.93045,2.16679 0.93045,3.85478v7.67574h-1.90919v-7.14198c0,-2.58113 -0.81289,-3.8717 -2.43775,-3.8717c-0.84205,0 -1.53373,0.3636 -2.07505,1.08974c-0.54223,0.72719 -0.81289,1.64676 -0.81289,2.75976v7.16417h-1.9183v-12.55791h1.9183v2.07801h0.03919c0.81562,-1.58229 2.00032,-2.3729 3.55319,-2.3729zM198.69884,174.44673c1.62486,0 2.89978,0.57711 3.82294,1.73132c0.92316,1.15422 1.38519,2.75024 1.38519,4.78597c0,1.98288 -0.49302,3.5842 -1.47814,4.80289c-0.98512,1.21869 -2.30743,1.82751 -3.9651,1.82751c-1.61848,0 -2.91072,-0.58979 -3.8758,-1.77043c-0.96599,-1.1817 -1.44898,-2.73651 -1.44898,-4.66654c0,-2.07484 0.4994,-3.71104 1.49728,-4.9107c0.99879,-1.20072 2.353,-1.80002 4.06261,-1.80002zM166.3164,174.44673c2.60999,0 3.91589,1.58968 3.91589,4.76906v8.08374h-1.89917v-1.94166h-0.04921c-0.75092,1.49139 -1.85725,2.23655 -3.31899,2.23655c-1.05074,0 -1.8855,-0.32872 -2.5061,-0.98722c-0.61969,-0.65849 -0.92953,-1.54847 -0.92953,-2.66886c0,-2.34648 1.19746,-3.71209 3.59238,-4.09895l3.21145,-0.52214c0,-2.05053 -0.73178,-3.07685 -2.19352,-3.07685c-1.29861,0 -2.48332,0.50735 -3.55319,1.52205v-2.14671c1.07717,-0.77899 2.32019,-1.16901 3.72999,-1.16901zM157.15957,174.44673c0.99242,0 1.84084,0.204 2.54529,0.61305v2.20273c-0.76368,-0.6511 -1.61211,-0.97665 -2.54529,-0.97665c-1.0963,0 -1.98848,0.44076 -2.67742,1.32333c-0.68804,0.88152 -1.03251,2.05687 -1.03251,3.52501c0,1.44594 0.32443,2.57796 0.97419,3.395c0.64976,0.81704 1.52553,1.22609 2.62821,1.22609c0.93318,0 1.81442,-0.35515 2.64371,-1.06754v2.04419c-0.82929,0.57499 -1.82809,0.86249 -2.99547,0.86249c-1.56654,0 -2.82597,-0.58239 -3.7792,-1.74824c-0.95323,-1.16584 -1.42893,-2.6752 -1.42893,-4.53019c0,-2.05899 0.51398,-3.71843 1.54193,-4.97835c1.02704,-1.26097 2.40312,-1.89093 4.12549,-1.89093zM138.37021,174.44673c1.62486,0 2.89978,0.57711 3.82294,1.73132c0.92316,1.15422 1.38519,2.75024 1.38519,4.78597c0,1.98288 -0.49302,3.5842 -1.47814,4.80289c-0.98512,1.21869 -2.30743,1.82751 -3.9651,1.82751c-1.61848,0 -2.91072,-0.58979 -3.8758,-1.77043c-0.96599,-1.1817 -1.44898,-2.73651 -1.44898,-4.66654c0,-2.07484 0.4994,-3.71104 1.49728,-4.9107c0.99879,-1.20072 2.353,-1.80002 4.06261,-1.80002zM119.06878,174.44673c1.41626,0 2.5225,0.52743 3.31871,1.58335c0.79621,1.05697 1.19427,2.53462 1.19427,4.43401v1.12462h-7.57698c0.03262,1.33919 0.34912,2.37502 0.94949,3.10539c0.60046,0.73037 1.43905,1.09502 2.51594,1.09502c1.21386,0 2.32657,-0.45027 3.33821,-1.35081v1.98711c-0.95286,0.78004 -2.21566,1.16901 -3.78858,1.16901c-1.56627,0 -2.78833,-0.57499 -3.6661,-1.72498c-0.87777,-1.15105 -1.31666,-2.74813 -1.31666,-4.79232c0,-1.92264 0.48126,-3.50809 1.44388,-4.75744c0.96271,-1.24828 2.15862,-1.87296 3.58782,-1.87296zM284.51951,171.95968c-0.07199,0.5306 -0.1531,0.9386 -0.24514,1.22714l-2.27098,7.31215h5.09057l-2.29103,-7.31215c-0.07108,-0.23465 -0.14945,-0.64369 -0.23421,-1.22714zM227.14169,171.6986v5.50684h1.78161c0.94594,0 1.68865,-0.26636 2.22633,-0.80013c0.53858,-0.53378 0.80833,-1.27365 0.80833,-2.21964c0,-1.65733 -0.95323,-2.48706 -2.85878,-2.48706zM342.81684,171.0179v3.72372h2.69201v1.83914h-2.69201v6.85871c0,0.82444 0.12029,1.41529 0.36179,1.77149c0.2415,0.35515 0.64247,0.53271 1.20384,0.53271c0.43105,0 0.80651,-0.13953 1.12638,-0.41962v1.85076c-0.41829,0.2653 -0.98239,0.39743 -1.69412,0.39743c-1.93835,0 -2.90707,-1.24512 -2.90707,-3.73535v-7.25612h-1.85998v-1.83914h1.85998v-3.01977zM283.54076,169.71149h2.09419l5.77587,17.58805h-2.16345l-1.54649,-4.81452h-6.31446l-1.45809,4.81452h-2.16345zM225.18329,169.71149h4.45448c1.33142,0 2.39492,0.36994 3.1914,1.10771c0.79557,0.73776 1.19381,1.71653 1.19381,2.93521c0,0.96819 -0.23603,1.82434 -0.709,2.56528c-0.47388,0.74199 -1.12455,1.26837 -1.95385,1.57912v0.04545c1.0316,0.1353 1.85542,0.58768 2.47238,1.3561c0.61696,0.76842 0.92498,1.74295 0.92498,2.92359c0,1.51464 -0.46841,2.73862 -1.40524,3.67299c-0.93591,0.93542 -2.1352,1.40261 -3.59694,1.40261h-4.57204zM101.70197,169.71149h10.92504v0.68175l-8.742,14.89699h8.54625v2.00931h-11.41451v-0.77159l8.68322,-14.79446h-7.99801zM259.45123,169.68929h1.94747l-0.3226,5.47301h-1.31228zM300.76632,168.71265h1.9183v18.58689h-1.9183v-2.08858h-0.03919c-0.7901,1.58863 -2.01673,2.38347 -3.68078,2.38347c-1.37061,0 -2.46053,-0.56549 -3.26978,-1.6975c-0.80924,-1.13096 -1.21386,-2.65829 -1.21386,-4.58092c0,-2.07379 0.45657,-3.73746 1.37061,-4.98997c0.91313,-1.25251 2.10786,-1.8793 3.58235,-1.8793c1.47541,0 2.54529,0.6659 3.21145,1.99874h0.03919zM254.18204,168.71265h1.9183v18.58689h-1.9183zM248.89645,168.71265h1.9183v18.58689h-1.9183zM181.10511,168.71265h1.9183v8.1979h0.03919c0.84843,-1.64253 2.08872,-2.46381 3.71996,-2.46381c1.35785,0 2.43593,0.55492 3.23515,1.66367c0.80013,1.10877 1.19928,2.62446 1.19928,4.5471c0,2.11923 -0.44836,3.80511 -1.346,5.05867c-0.89673,1.25251 -2.09328,1.87824 -3.58782,1.87824c-1.40979,0 -2.48332,-0.68809 -3.22056,-2.06638h-0.03919v1.77149h-1.9183z" fill="url(#color-1)" fill-rule="evenodd" stroke-width="1"/><text transform="translate(-1905.30505,-1023.90936)" font-size="178.643" xml:space="preserve" fill-opacity="0" fill="#000000" fill-rule="nonzero" stroke="none" stroke-width="1" stroke-linecap="butt" stroke-linejoin="miter" stroke-miterlimit="10" stroke-dasharray="" stroke-dashoffset="0" font-family="Arial,Arial_MSFontService,sans-serif" font-weight="400" text-anchor="start" style="mix-blend-mode: normal"><tspan x="0" dy="0">Zero carbon Bell's Adventure</tspan></text></g></g></svg>