<svg version="1.1" xmlns="http://www.w3.org/2000/svg" xmlns:xlink="http://www.w3.org/1999/xlink" width="67.61998" height="67.61998" viewBox="0,0,67.61998,67.61998"><defs><radialGradient cx="240.00001" cy="179.97233" r="21.89014" gradientUnits="userSpaceOnUse" id="color-1"><stop offset="0" stop-color="#dee1ee"/><stop offset="1" stop-color="#a7aab4"/></radialGradient></defs><g transform="translate(-206.19003,-145.44)"><g data-paper-data="{&quot;isPaintingLayer&quot;:true}" fill="none" fill-rule="nonzero" stroke="none" stroke-width="1" stroke-linecap="butt" stroke-linejoin="miter" stroke-miterlimit="10" stroke-dasharray="" stroke-dashoffset="0" font-family="none" font-weight="none" font-size="none" text-anchor="none" style="mix-blend-mode: normal"><path d="M261.37307,157.19476l-5.28585,14.03478c0,0 -4.50537,-0.57248 -6.24484,-2.31196c-1.39041,-1.39041 -1.77502,-5.70791 -1.77502,-5.70791z" data-paper-data="{&quot;origPos&quot;:null,&quot;origRot&quot;:0}" fill="#ed7474" stroke="#964545"/><path d="M218.62692,202.74992l5.28585,-14.03479c0,0 4.50537,0.57248 6.24485,2.31196c1.39041,1.39041 1.77504,5.70793 1.77504,5.70793z" data-paper-data="{&quot;origPos&quot;:null,&quot;origRot&quot;:0}" fill="#ed7474" stroke="#964545"/><path d="M262.77759,201.34541l-14.03477,-5.28585c0,0 0.5725,-4.50537 2.31196,-6.24484c1.39041,-1.39041 5.70791,-1.77503 5.70791,-1.77503z" data-paper-data="{&quot;origPos&quot;:null,&quot;origRot&quot;:0}" fill="#ed7474" stroke="#964545"/><path d="M217.22243,158.59925l14.03478,5.28584c0,0 -0.57248,4.50538 -2.31196,6.24485c-1.39039,1.39039 -5.70793,1.77502 -5.70793,1.77502z" data-paper-data="{&quot;origPos&quot;:null,&quot;origRot&quot;:0}" fill="#ed7474" stroke="#964545"/><path d="M207.4949,179.73156l12.76127,-5.77869c0,0 0.57787,3.20049 0.57787,5.24897c0,2.08607 -0.57787,5.3453 -0.57787,5.3453z" data-paper-data="{&quot;origPos&quot;:null}" fill="#ed7474" stroke="#964545"/><path d="M259.74386,184.54713c0,0 -0.77049,-3.3344 -0.77049,-5.3453c0,-2.12365 0.77049,-5.24897 0.77049,-5.24897l12.76128,5.77869z" data-paper-data="{&quot;origPos&quot;:null,&quot;index&quot;:null}" fill="#ed7474" stroke="#964545"/><path d="M239.51846,146.74488l5.77869,12.76128c0,0 -3.19697,0.38524 -5.48975,0.38524c-1.84174,0 -5.10451,-0.38524 -5.10451,-0.38524z" data-paper-data="{&quot;origPos&quot;:null,&quot;origRot&quot;:0}" fill="#ed7474" stroke="#964545"/><path d="M234.70288,198.99383c0,0 3.03724,-0.57787 5.10451,-0.57787c2.06729,0 5.48975,0.57787 5.48975,0.57787l-5.7787,12.76128z" data-paper-data="{&quot;origPos&quot;:null,&quot;index&quot;:null,&quot;origRot&quot;:0}" fill="#ed7474" stroke="#964545"/><path d="M218.10987,179.97233c0,-12.08959 9.80055,-21.89014 21.89014,-21.89014c12.08959,0 21.89014,9.80055 21.89014,21.89014c0,12.08959 -9.80055,21.89014 -21.89014,21.89014c-12.08959,0 -21.89014,-9.80055 -21.89014,-21.89014z" data-paper-data="{&quot;origPos&quot;:null}" fill="url(#color-1)" stroke="#565a6c"/><path d="M240.00001,186.9513c-3.85437,0 -6.97896,-3.12457 -6.97896,-6.97896c0,-3.85439 3.12457,-6.97896 6.97896,-6.97896c3.85439,0 6.97896,3.12457 6.97896,6.97896c0,3.85437 -3.12457,6.97896 -6.97896,6.97896z" data-paper-data="{&quot;origPos&quot;:null}" fill="#ed7474" stroke="#964545"/></g></g></svg>