<svg version="1.1" xmlns="http://www.w3.org/2000/svg" xmlns:xlink="http://www.w3.org/1999/xlink" width="59.75" height="51.66093" viewBox="0,0,59.75,51.66093"><g transform="translate(-408.94973,-108.46854)"><g data-paper-data="{&quot;isPaintingLayer&quot;:true}" fill-rule="nonzero" stroke-linecap="butt" stroke-linejoin="miter" stroke-miterlimit="10" stroke-dasharray="" stroke-dashoffset="0" style="mix-blend-mode: normal"><path d="M409.44974,153.45812v-42.01184c0,0 13.07902,7.31421 18.25,7.31421c8.2239,0 14.31425,-7.80965 22.34968,-9.41016c7.75406,-1.54446 18.15032,2.09594 18.15032,2.09594v42.01184c0,0 -9.19821,-3.03233 -15.47318,-1.88915c-9.56927,1.74334 -15.51943,8.06052 -25.27682,8.06052c-7.1223,0 -18,-6.17137 -18,-6.17137z" fill="#ff0000" stroke="#662121" stroke-width="1"/><path d="M420.39652,124.34572l15.55635,15.55635c0,0 -8.16587,6.84757 -15.55635,0c-6.41709,-5.94568 0,-15.55635 0,-15.55635z" data-paper-data="{&quot;origRot&quot;:0}" fill="#000000" stroke="none" stroke-width="0"/><path d="M455.10083,137.90208c-7.39048,6.84757 -15.55635,0 -15.55635,0l15.55635,-15.55635c0,0 6.41709,9.61067 0,15.55635z" data-paper-data="{&quot;origRot&quot;:0,&quot;index&quot;:null}" fill="#000000" stroke="none" stroke-width="0"/></g></g></svg>