<svg version="1.1" xmlns="http://www.w3.org/2000/svg" xmlns:xlink="http://www.w3.org/1999/xlink" width="720" height="540" viewBox="0,0,720,540"><defs><clipPath id="clip-1"><rect x="-240" y="-180" transform="scale(0.5,0.5)" width="1440" height="1080" fill="none" stroke="none" stroke-width="0.5"/></clipPath></defs><g transform="translate(120,90)"><g clip-path="url(#clip-1)" data-paper-data="{&quot;isPaintingLayer&quot;:true}" fill-rule="nonzero" stroke-linecap="butt" stroke-linejoin="miter" stroke-miterlimit="10" stroke-dasharray="" stroke-dashoffset="0" style="mix-blend-mode: normal"><path d="M229.6384,173.39353l-0.75257,10.29127v6.53368h22.22835v-4.20527h-5.40693v-5.07389l-6.27801,3.25682l-0.87882,0.45506v-3.71293l-6.27801,3.25682l-0.80919,0.4206l-0.06682,-0.90907l-0.75574,-10.31307zM231.19876,172.79288l0.79688,10.87012l7.15648,-3.71223v3.71223l7.15613,-3.71223v5.46319h5.40657v5.40693h-23.42966v-7.15789l0.79477,-10.87012z" fill="#000000" stroke="#29ffff" stroke-width="2"/><path d="M237.6512,174.29029c-0.52258,0.00141 -1.02793,-0.1892 -1.41969,-0.53559c-0.25707,-0.24019 -0.44099,-0.54861 -0.52961,-0.88902c-0.59327,-0.00422 -1.16368,-0.23105 -1.59799,-0.63512l-0.86651,-0.8215c-0.32494,-0.26973 -0.74343,-0.3995 -1.16403,-0.36046l-0.14665,0.01125c-0.49867,0.01864 -0.89078,0.4322 -0.88269,0.93122v0.2008h-0.60065v-0.19483c-0.01864,-0.81728 0.61999,-1.49952 1.43692,-1.53469l0.16775,-0.01231c0.58166,-0.04888 1.1584,0.13891 1.6001,0.52082l0.86687,0.82185c0.37805,0.35026 0.89008,0.51871 1.40211,0.46139l0.30279,-0.03411l0.03024,0.30314c0.02849,0.30068 0.16564,0.58096 0.38543,0.78774c0.60206,0.52469 1.50444,0.50429 2.08189,-0.04748c0.08651,-0.08194 0.16247,-0.17372 0.22683,-0.27395l0.12027,-0.18955l0.21557,0.06295c0.67696,0.19588 1.40738,0.02005 1.92152,-0.46245c0.68787,-0.60382 0.75644,-1.65109 0.15262,-2.33931c0,0 0,0 0,-0.00035c-0.02884,-0.03271 -0.05908,-0.06436 -0.09038,-0.0946c-0.75679,-0.65903 -1.89128,-0.63301 -2.61713,0.06014c-0.33444,0.30806 -0.84823,0.31088 -1.18618,0.00668c-0.61472,-0.56549 -1.56001,-0.56654 -2.17613,-0.00281l-0.11992,0.11781c-0.33444,0.31123 -0.85139,0.31404 -1.189,0.00633c-0.41216,-0.37453 -0.94881,-0.58166 -1.5055,-0.58131l-0.21522,0.00457c-1.30048,-0.03657 -2.38643,0.98432 -2.43074,2.2848v0.32846h-0.60065v-0.33655c0.0626,-1.61944 1.40281,-2.8946 3.02295,-2.87666l0.21874,-0.00457c0.71002,-0.00035 1.39437,0.2641 1.91906,0.74202c0.10339,0.09495 0.26235,0.09495 0.36574,0l0.12027,-0.11781c0.84506,-0.7793 2.14659,-0.78211 2.99517,-0.00598c0.10656,0.0946 0.26692,0.09319 0.37207,-0.00246c0.95654,-0.9059 2.44586,-0.93263 3.43406,-0.06189c0.0524,0.04994 0.09354,0.09319 0.13328,0.13821c0.82185,0.93333 0.73323,2.35619 -0.19799,3.1805c-0.61226,0.57111 -1.46224,0.81201 -2.28304,0.64672c-0.05873,0.07315 -0.12203,0.14207 -0.1899,0.20678c-0.39915,0.38156 -0.93052,0.59327 -1.48264,0.59116z" fill="#000000" stroke="#29ffff" stroke-width="2"/><path d="M231.00604,187.17934v1.18442h1.9792v-1.18442zM233.58589,186.57834v2.38608h-3.1805v-2.38608z" fill="#000000" stroke="#29ffff" stroke-width="2"/><path d="M236.30747,187.17934v1.18442h1.98025v-1.18442zM238.88872,186.57834v2.38608h-3.1805v-2.38608z" fill="#000000" stroke="#29ffff" stroke-width="2"/><path d="M241.60819,187.17934v1.18442h1.9792v-1.18442zM244.18839,186.57834v2.38608h-3.18085v-2.38608z" fill="#000000" stroke="#29ffff" stroke-width="2"/></g></g></svg>