<svg version="1.1" xmlns="http://www.w3.org/2000/svg" xmlns:xlink="http://www.w3.org/1999/xlink" width="54.28278" height="28.40351" viewBox="0,0,54.28278,28.40351"><defs><linearGradient x1="222.99175" y1="194.36566" x2="222.99175" y2="207.62913" gradientUnits="userSpaceOnUse" id="color-1"><stop offset="0" stop-color="#725c4b"/><stop offset="1" stop-color="#5b412a"/></linearGradient><linearGradient x1="256.03702" y1="194.50141" x2="256.03702" y2="207.76488" gradientUnits="userSpaceOnUse" id="color-2"><stop offset="0" stop-color="#725c4b"/><stop offset="1" stop-color="#5b412a"/></linearGradient><linearGradient x1="240.32157" y1="193.66056" x2="240.32157" y2="197.09355" gradientUnits="userSpaceOnUse" id="color-3"><stop offset="0" stop-color="#846a58"/><stop offset="1" stop-color="#b29072"/></linearGradient><linearGradient x1="240.3971" y1="178.24994" x2="240.3971" y2="195.61015" gradientUnits="userSpaceOnUse" id="color-4"><stop offset="0" stop-color="#d6c0ad"/><stop offset="1" stop-color="#ad947e"/></linearGradient><linearGradient x1="249.55273" y1="181.15717" x2="245.28052" y2="183.71852" gradientUnits="userSpaceOnUse" id="color-5"><stop offset="0" stop-color="#725c4b"/><stop offset="1" stop-color="#5b412a"/></linearGradient><linearGradient x1="232.08684" y1="181.01557" x2="235.52125" y2="183.88033" gradientUnits="userSpaceOnUse" id="color-6"><stop offset="0" stop-color="#725c4b"/><stop offset="1" stop-color="#5b412a"/></linearGradient></defs><g transform="translate(-212.37299,-177.99992)"><g data-paper-data="{&quot;isPaintingLayer&quot;:true}" fill="none" fill-rule="nonzero" stroke="none" stroke-width="none" stroke-linecap="butt" stroke-linejoin="miter" stroke-miterlimit="10" stroke-dasharray="" stroke-dashoffset="0" font-family="none" font-weight="none" font-size="none" text-anchor="none" style="mix-blend-mode: normal"><path d="M253.76761,197.28982c-0.26292,3.60932 -6.15529,6.54385 -13.74822,6.54385c-7.59294,0 -13.67348,-2.93017 -13.74822,-6.54385c-0.15108,-7.30468 7.62382,-6.54385 13.74822,-6.54385c7.59294,0 14.35254,-1.752 13.74822,6.54385z" data-paper-data="{&quot;origPos&quot;:null}" fill="#e2cbb7" stroke="#b79e89" stroke-width="0.5"/><path d="M233.36052,200.99738c0,3.6626 -1.22745,4.86713 -10.50002,5.02029c-9.26797,0.15309 -10.23751,-1.35768 -10.23751,-5.02029c0,-3.6626 4.64225,-6.63175 10.36876,-6.63175c5.72651,0 10.36876,2.96913 10.36876,6.63175z" data-paper-data="{&quot;origPos&quot;:null}" fill="url(#color-1)" stroke="#2e2318" stroke-width="0.5"/><path d="M266.40577,201.13314c0,3.6626 -1.22745,4.86713 -10.50002,5.02029c-9.26797,0.15309 -10.23752,-1.35768 -10.23752,-5.02029c0,-3.6626 4.64226,-6.63174 10.36877,-6.63174c5.72651,0 10.36877,2.96912 10.36877,6.63174z" data-paper-data="{&quot;origPos&quot;:null}" fill="url(#color-2)" stroke="#2e2318" stroke-width="0.5"/><g data-paper-data="{&quot;origPos&quot;:null}"><path d="M262.53013,193.24098c0,0.95017 -4.51217,2.72195 -11.47318,3.33624c-3.80788,0.33604 -6.8699,-0.39914 -10.73549,-0.39914c-3.42608,0 -6.66589,0.6509 -10.09057,0.60126c-5.59832,-0.08116 -11.06055,-1.06935 -11.06055,-2.24147c0,-0.94799 13.55818,-0.87731 21.15111,-0.87731c7.59293,0 22.20867,-1.36758 22.20867,-0.41958z" data-paper-data="{&quot;origPos&quot;:null}" fill="url(#color-3)" stroke="#654d38" stroke-width="0.5"/><path d="M264.19203,190.72345c0,2.75757 -3.19595,4.09707 -8.60699,4.46858c-5.41739,0.37195 -10.03651,-1.0929 -15.64125,-0.99746c-5.87885,0.10012 -7.22016,1.52543 -14.25195,1.40878c-6.69679,-0.1111 -9.08982,-1.07846 -9.08982,-4.87992c0,-4.14124 1.74878,-3.90682 7.63751,-6.78916c4.39724,-2.15229 9.17288,-5.72225 15.70426,-5.68405c6.53138,0.03821 10.97868,2.60933 15.99102,5.46949c4.62858,2.64118 8.25723,3.02213 8.25723,7.00371z" data-paper-data="{&quot;origPos&quot;:null}" fill="url(#color-4)" stroke="#785f49" stroke-width="0.5"/><g data-paper-data="{&quot;origPos&quot;:null,&quot;index&quot;:null}" stroke="#000000" stroke-width="0"><path d="M246.76958,185.30886c2.50876,0 2.26619,1.33207 2.26619,2.97527c0,1.6432 0.24257,1.40428 -2.26619,1.40428c-2.50876,0 -2.26619,0.23893 -2.26619,-1.40428c0,-1.6432 -0.24257,-2.97527 2.26619,-2.97527z" data-paper-data="{&quot;origPos&quot;:null}" fill="#000000"/><path d="M247.21137,185.69936c0.55338,0 1.00198,0.26771 1.00198,0.59794c0,0.33024 -0.4486,0.59794 -1.00198,0.59794c-0.55338,0 -1.00198,-0.26771 -1.00198,-0.59794c0,-0.33024 0.4486,-0.59794 1.00198,-0.59794z" data-paper-data="{&quot;origPos&quot;:null}" fill="#ffffff"/><path d="M245.78573,186.7009c0.30939,0 0.5602,0.14967 0.5602,0.3343c0,0.18463 -0.25081,0.3343 -0.5602,0.3343c-0.30939,0 -0.5602,-0.14967 -0.5602,-0.3343c0,-0.18463 0.25081,-0.3343 0.5602,-0.3343z" data-paper-data="{&quot;origPos&quot;:null}" fill="#aaaaaa"/></g><g data-paper-data="{&quot;origPos&quot;:null,&quot;index&quot;:null}" stroke="#000000" stroke-width="0"><path d="M234.57619,185.31442c2.50876,0 2.26619,1.33207 2.26619,2.97527c0,1.6432 0.24257,1.51649 -2.26619,1.51649c-2.50876,0 -2.26619,0.12671 -2.26619,-1.51649c0,-1.6432 -0.24257,-2.97527 2.26619,-2.97527z" data-paper-data="{&quot;origPos&quot;:null}" fill="#000000"/><path d="M235.01798,185.70493c0.55337,0 1.00197,0.26771 1.00197,0.59794c0,0.33024 -0.4486,0.59795 -1.00197,0.59795c-0.55338,0 -1.00198,-0.26772 -1.00198,-0.59795c0,-0.33024 0.44861,-0.59794 1.00198,-0.59794z" data-paper-data="{&quot;origPos&quot;:null}" fill="#ffffff"/><path d="M233.59238,186.70648c0.30939,0 0.5602,0.14967 0.5602,0.3343c0,0.18463 -0.25081,0.3343 -0.5602,0.3343c-0.30939,0 -0.5602,-0.14967 -0.5602,-0.3343c0,-0.18463 0.25081,-0.3343 0.5602,-0.3343z" data-paper-data="{&quot;origPos&quot;:null}" fill="#aaaaaa"/></g><path d="M242.76116,182.64696c-1.07638,-0.45017 -1.13353,-0.97194 0.28337,-1.63947c1.41691,-0.66753 3.09095,-0.6435 4.5145,-0.39355c4.31622,0.75786 4.65824,3.03136 4.65824,3.03136c0,0 -1.39596,-0.86686 -2.71304,-1.16769c-0.59268,-0.13538 -2.57419,-0.40235 -3.20077,-0.10716c-1.41691,0.66752 -2.4659,0.72667 -3.54228,0.27651z" data-paper-data="{&quot;origPos&quot;:null,&quot;origRot&quot;:0,&quot;index&quot;:null}" fill="url(#color-5)" stroke="#2e2318" stroke-width="0.5"/><path d="M238.33906,182.86503c-1.20155,0.36049 -2.21971,0.37381 -3.41461,-0.39653c-0.5284,-0.34065 -2.5679,-0.23199 -3.19498,-0.14464c-1.39351,0.19413 -3.03866,0.94126 -3.03866,0.94126c0,0 1.03571,-2.21927 5.53238,-2.63017c1.48307,-0.13553 3.14424,-0.02825 4.33915,0.74211c0,0 0.97826,1.12749 -0.22328,1.48797z" data-paper-data="{&quot;origPos&quot;:null,&quot;origRot&quot;:0,&quot;index&quot;:null}" fill="url(#color-6)" stroke="#2e2318" stroke-width="0.5"/><path d="M228.26376,195.56003c0,0 1.87063,-0.04228 3.33606,-0.30818c2.60829,-0.47328 4.53935,-0.80265 4.53935,-0.80265l-2.77534,2.82101z" data-paper-data="{&quot;origPos&quot;:null}" fill="#ffffff" stroke="#9a9a9a" stroke-width="0.5"/><path d="M246.74705,196.80276l-3.19119,-2.50603c0,0 3.17859,0.32935 4.74727,0.54016c1.5048,0.20222 3.54398,0.25569 3.54398,0.25569z" data-paper-data="{&quot;origPos&quot;:null,&quot;index&quot;:null}" fill="#ffffff" stroke="#9a9a9a" stroke-width="0.5"/></g></g></g></svg>