<svg version="1.1" xmlns="http://www.w3.org/2000/svg" xmlns:xlink="http://www.w3.org/1999/xlink" width="31.16476" height="37.25905" viewBox="0,0,31.16476,37.25905"><defs><linearGradient x1="247.06799" y1="167.37007" x2="226.84878" y2="192.71454" gradientUnits="userSpaceOnUse" id="color-1"><stop offset="0" stop-color="#be9311"/><stop offset="1" stop-color="#8d6500"/></linearGradient><radialGradient cx="232.14286" cy="167.85714" r="18.12953" gradientUnits="userSpaceOnUse" id="color-2"><stop offset="0" stop-color="#ffe117"/><stop offset="1" stop-color="#dd9e00"/></radialGradient><radialGradient cx="234.66667" cy="171.33333" r="14.47973" gradientUnits="userSpaceOnUse" id="color-3"><stop offset="0" stop-color="#fffd00"/><stop offset="1" stop-color="#ffcf19"/></radialGradient><linearGradient x1="240.41747" y1="170.5121" x2="240.41747" y2="188.90714" gradientUnits="userSpaceOnUse" id="color-4"><stop offset="0" stop-color="#e2ae13"/><stop offset="1" stop-color="#d69a02"/></linearGradient></defs><g transform="translate(-222.3218,-161.41277)"><g data-paper-data="{&quot;isPaintingLayer&quot;:true}" fill="none" fill-rule="nonzero" stroke="none" stroke-width="none" stroke-linecap="butt" stroke-linejoin="miter" stroke-miterlimit="10" stroke-dasharray="" stroke-dashoffset="0" font-family="none" font-weight="none" font-size="none" text-anchor="none" style="mix-blend-mode: normal"><path d="M246.83963,193.00741c-5.58337,6.99868 -3.07878,-1.62419 -6.28289,5.15187c-10.81312,0.03872 -13.70795,-5.44474 -13.70795,-5.44474c-5.45726,-7.16043 -5.35502,-18.63866 0.22837,-25.63734c2.86151,-3.58686 9.13548,-5.12738 13.72305,-5.03728c4.56325,0.08962 3.50118,1.70011 6.26778,5.33015c5.45725,7.16043 5.35501,18.63866 -0.22837,25.63734z" data-paper-data="{&quot;origPos&quot;:null,&quot;origRot&quot;:0,&quot;index&quot;:null}" fill="url(#color-1)" stroke="#654b04" stroke-width="1"/><path d="M231.42028,192.71453c-4.85407,-7.16043 -4.76313,-18.63866 0.20313,-25.63734c4.96625,-6.99868 12.9272,-6.86756 17.78127,0.29287c4.85407,7.16043 4.76313,18.63866 -0.20313,25.63734c-4.96625,6.99868 -12.9272,6.86756 -17.78127,-0.29287z" data-paper-data="{&quot;origPos&quot;:null,&quot;origRot&quot;:0,&quot;index&quot;:null}" fill="url(#color-2)" stroke="#856305" stroke-width="1"/><path d="M233.23057,190.16338c-3.87686,-5.71891 -3.80423,-14.88636 0.16223,-20.47608c3.96646,-5.58972 10.32471,-5.485 14.20158,0.23391c3.87686,5.71891 3.80423,14.88636 -0.16223,20.47608c-3.96646,5.58972 -10.32471,5.485 -14.20158,-0.23391z" data-paper-data="{&quot;origPos&quot;:null,&quot;origRot&quot;:0,&quot;index&quot;:null}" fill="url(#color-3)" stroke="#a47a07" stroke-width="1"/><path d="M230.86918,190.91195l20.12348,-19.23656c0,0 0.54379,1.13277 0.91891,2.55559c0.3171,1.20276 0.39283,2.82686 0.39283,2.82686l-18.42267,17.59949c0,0 -0.61403,-0.48392 -1.65364,-1.63428c-1.03961,-1.15036 -1.35892,-2.1111 -1.35892,-2.1111z" data-paper-data="{&quot;origRot&quot;:0,&quot;origPos&quot;:null}" fill="#ffeb09" stroke="none" stroke-width="0"/><path d="M238.1582,188.90714v-18.39504h4.51854v18.39504z" data-paper-data="{&quot;origPos&quot;:null,&quot;index&quot;:null}" fill="url(#color-4)" stroke="#a47a07" stroke-width="1"/></g></g></svg>