<svg version="1.1" xmlns="http://www.w3.org/2000/svg" xmlns:xlink="http://www.w3.org/1999/xlink" width="720" height="540" viewBox="0,0,720,540"><defs><clipPath id="clip-1"><rect x="-240" y="-180" transform="scale(0.5,0.5)" width="1440" height="1080" fill="none" stroke="none" stroke-width="0.5"/></clipPath></defs><g transform="translate(120,90)"><g clip-path="url(#clip-1)" data-paper-data="{&quot;isPaintingLayer&quot;:true}" fill-rule="nonzero" stroke-linecap="butt" stroke-linejoin="miter" stroke-miterlimit="10" stroke-dasharray="" stroke-dashoffset="0" style="mix-blend-mode: normal"><path d="M240.00561,163.44393c9.1346,0.0041 16.53624,7.41242 16.53214,16.54702c0,9.13848 -7.40832,16.5468 -16.5468,16.5468c-9.1387,0 -16.54702,-7.40832 -16.54702,-16.5468c0,-9.1387 7.40832,-16.54702 16.54702,-16.54702c0.00474,0 0.0097,0 0.01466,0zM255.66631,179.99094c0,-8.65749 -7.01809,-15.67558 -15.67536,-15.67558c-8.65749,0 -15.67558,7.01809 -15.67558,15.67558c0,8.65727 7.01809,15.67536 15.67558,15.67536c8.65317,-0.00992 15.66544,-7.02219 15.67536,-15.67536z" fill="#29ffff" stroke="#29ffff" stroke-width="1"/><path d="M240.43572,188.27804h3.04983v0.87144h-6.97109v-0.87144h3.04983v-13.07053h-2.61411v-0.87144h3.48555z" fill="#29ffff" stroke="#29ffff" stroke-width="2"/><path d="M240.46353,170.63277c0,0.54136 -0.43895,0.98032 -0.98032,0.98032c-0.54136,0 -0.98032,-0.43895 -0.98032,-0.98032c0,-0.54136 0.43895,-0.98032 0.98032,-0.98032c0.54136,0 0.98032,0.43895 0.98032,0.98032z" fill="#29ffff" stroke="#29ffff" stroke-width="2"/></g></g></svg>