<svg version="1.1" xmlns="http://www.w3.org/2000/svg" xmlns:xlink="http://www.w3.org/1999/xlink" width="61.71247" height="61.71247" viewBox="0,0,61.71247,61.71247"><defs><linearGradient x1="218.39528" y1="158.8238" x2="261.81305" y2="201.2608" gradientUnits="userSpaceOnUse" id="color-1"><stop offset="0" stop-color="#64ec15"/><stop offset="1" stop-color="#3da600"/></linearGradient><linearGradient x1="222.76567" y1="163.09547" x2="257.44266" y2="196.98913" gradientUnits="userSpaceOnUse" id="color-2"><stop offset="0" stop-color="#cffcb4"/><stop offset="1" stop-color="#6dfc1a"/></linearGradient></defs><g transform="translate(-209.24794,-149.18607)"><g data-paper-data="{&quot;isPaintingLayer&quot;:true}" fill="none" fill-rule="nonzero" stroke="none" stroke-width="none" stroke-linecap="butt" stroke-linejoin="miter" stroke-miterlimit="10" stroke-dasharray="" stroke-dashoffset="0" font-family="none" font-weight="none" font-size="none" text-anchor="none" style="mix-blend-mode: normal"><path d="M218.88567,201.75118c-11.98948,-11.71865 -12.20904,-30.93789 -0.49038,-42.92738c11.71865,-11.98948 30.93789,-12.20904 42.92738,-0.49038c11.98948,11.71865 12.20904,30.93789 0.49038,42.92738c-11.71865,11.98948 -30.93789,12.20904 -42.92738,0.49038z" data-paper-data="{&quot;origPos&quot;:null,&quot;origRot&quot;:0}" fill="url(#color-1)" stroke="#2e7902" stroke-width="1"/><path d="M223.15734,197.38079c-9.57579,-9.35948 -9.75113,-24.70953 -0.39166,-34.28532c9.35948,-9.57579 24.70953,-9.75113 34.28531,-0.39166c9.57579,9.35948 9.75114,24.70953 0.39166,34.28531c-9.35948,9.57579 -24.70953,9.75114 -34.28532,0.39166z" data-paper-data="{&quot;origPos&quot;:null,&quot;origRot&quot;:0}" fill="url(#color-2)" stroke="#208908" stroke-width="1"/><path d="M251.80452,196.29866l-11.582,-6.00793l-11.51754,6.13883l2.13378,-12.87559l-9.39605,-9.05708l12.90375,-1.949l5.70803,-11.73732l5.845,11.67158l12.92272,1.80407l-9.29154,9.16226z" data-paper-data="{&quot;origPos&quot;:null,&quot;origRot&quot;:0}" id="Star" fill="none" stroke="#51c70c" stroke-width="2.5"/></g></g></svg>