<svg version="1.1" xmlns="http://www.w3.org/2000/svg" xmlns:xlink="http://www.w3.org/1999/xlink" width="32.27859" height="33.13284"><defs><linearGradient x1="240.00048" y1="164.35955" x2="240.00048" y2="197.91154" gradientUnits="userSpaceOnUse" id="color-1"><stop offset="0" stop-color="#ff2700"/><stop offset="1" stop-color="#ffb500"/></linearGradient></defs><g transform="translate(-223.86119,-163.85955)"><g data-paper-data="{&quot;isPaintingLayer&quot;:true}" fill="none" fill-rule="nonzero" stroke="none" stroke-width="none" stroke-linecap="butt" stroke-linejoin="miter" stroke-miterlimit="10" stroke-dasharray="" stroke-dashoffset="0" font-family="none" font-weight="none" font-size="none" text-anchor="none" style="mix-blend-mode: normal"><path d="M224.36119,181.13554c0,-9.26513 7.00195,-16.776 15.6393,-16.776c8.63735,0 15.6393,7.51087 15.6393,16.776c0,5.94587 0.33128,14.83768 -5.32611,14.78683c-5.34365,-0.04803 -5.75976,-6.1393 -5.75976,-6.1393c0,0 -0.80477,6.64286 -5.00945,6.70932c-4.43173,0.07005 -5.15383,-6.47736 -5.15383,-6.47736c0,0 -1.10546,6.81878 -5.34294,6.46556c-3.43613,-0.28642 -4.68649,-6.07992 -4.68649,-15.34505z" data-paper-data="{&quot;origPos&quot;:null}" fill="url(#color-1)" stroke="#681818" stroke-width="1"/><path d="M248.93903,171.05033c0,2.60545 -3.89932,4.71758 -8.70938,4.71758c-4.81006,0 -8.70938,-2.11213 -8.70938,-4.71758c0,-2.60545 3.89932,-4.71758 8.70938,-4.71758c4.81006,0 8.70938,2.11213 8.70938,4.71758z" data-paper-data="{&quot;origPos&quot;:null}" fill="#ff8671" stroke="none" stroke-width="0"/><g data-paper-data="{&quot;origPos&quot;:null}" stroke="#000000" stroke-width="0"><path d="M245.12803,173.17611c2.10997,0 1.90596,2.21865 1.90596,4.95551c0,2.73684 0.20401,4.9555 -1.90596,4.9555c-2.10997,0 -1.90596,-2.21864 -1.90596,-4.9555c0,-2.73685 -0.20401,-4.95551 1.90596,-4.95551z" data-paper-data="{&quot;origPos&quot;:null}" fill="#000000"/><path d="M245.49959,173.82653c0.46542,0 0.84271,0.44589 0.84271,0.99592c0,0.55003 -0.37729,0.99592 -0.84271,0.99592c-0.46542,0 -0.84271,-0.44589 -0.84271,-0.99592c0,-0.55003 0.37729,-0.99592 0.84271,-0.99592z" data-paper-data="{&quot;origPos&quot;:null}" fill="#ffffff"/><path d="M244.30057,175.49467c0.26021,0 0.47115,0.24929 0.47115,0.55681c0,0.30752 -0.21094,0.55681 -0.47115,0.55681c-0.26021,0 -0.47115,-0.24929 -0.47115,-0.55681c0,-0.30752 0.21094,-0.55681 0.47115,-0.55681z" data-paper-data="{&quot;origPos&quot;:null}" fill="#aaaaaa"/><path d="M234.87288,173.1854c2.10997,0 1.90596,2.21865 1.90596,4.95551c0,2.73684 0.20401,4.9555 -1.90596,4.9555c-2.10997,0 -1.90596,-2.21864 -1.90596,-4.9555c0,-2.73685 -0.20401,-4.95551 1.90596,-4.95551z" data-paper-data="{&quot;origPos&quot;:null}" fill="#000000"/><path d="M235.24445,173.83581c0.46541,0 0.8427,0.44589 0.8427,0.99592c0,0.55003 -0.37729,0.99593 -0.8427,0.99593c-0.46542,0 -0.84271,-0.4459 -0.84271,-0.99593c0,-0.55003 0.3773,-0.99592 0.84271,-0.99592z" data-paper-data="{&quot;origPos&quot;:null}" fill="#ffffff"/><path d="M234.04544,175.50396c0.26021,0 0.47115,0.24929 0.47115,0.55681c0,0.30752 -0.21094,0.55681 -0.47115,0.55681c-0.26021,0 -0.47115,-0.24929 -0.47115,-0.55681c0,-0.30752 0.21094,-0.55681 0.47115,-0.55681z" data-paper-data="{&quot;origPos&quot;:null}" fill="#aaaaaa"/></g></g></g></svg>