<svg version="1.1" xmlns="http://www.w3.org/2000/svg" xmlns:xlink="http://www.w3.org/1999/xlink" width="64.9607" height="7.41046" viewBox="0,0,64.9607,7.41046"><defs><linearGradient x1="217.65282" y1="202.11395" x2="217.65282" y2="206.66689" gradientUnits="userSpaceOnUse" id="color-1"><stop offset="0" stop-color="#725c4b"/><stop offset="1" stop-color="#5b412a"/></linearGradient><linearGradient x1="261.37607" y1="202.16054" x2="261.37607" y2="206.71349" gradientUnits="userSpaceOnUse" id="color-2"><stop offset="0" stop-color="#725c4b"/><stop offset="1" stop-color="#5b412a"/></linearGradient><linearGradient x1="240.32163" y1="203.06697" x2="240.32163" y2="203.91728" gradientUnits="userSpaceOnUse" id="color-3"><stop offset="0" stop-color="#846a58"/><stop offset="1" stop-color="#b29072"/></linearGradient><linearGradient x1="240.39716" y1="199.2499" x2="240.39716" y2="203.54987" gradientUnits="userSpaceOnUse" id="color-4"><stop offset="0" stop-color="#d6c0ad"/><stop offset="1" stop-color="#ad947e"/></linearGradient><linearGradient x1="249.55279" y1="199.96999" x2="245.28058" y2="200.60441" gradientUnits="userSpaceOnUse" id="color-5"><stop offset="0" stop-color="#725c4b"/><stop offset="1" stop-color="#5b412a"/></linearGradient><linearGradient x1="232.0869" y1="199.93493" x2="235.52131" y2="200.6445" gradientUnits="userSpaceOnUse" id="color-6"><stop offset="0" stop-color="#725c4b"/><stop offset="1" stop-color="#5b412a"/></linearGradient></defs><g transform="translate(-207.03406,-198.99987)"><g data-paper-data="{&quot;isPaintingLayer&quot;:true}" fill="none" fill-rule="nonzero" stroke="none" stroke-width="none" stroke-linecap="butt" stroke-linejoin="miter" stroke-miterlimit="10" stroke-dasharray="" stroke-dashoffset="0" font-family="none" font-weight="none" font-size="none" text-anchor="none" style="mix-blend-mode: normal"><path d="M253.76765,203.9659c-0.26292,0.89399 -6.15529,1.62085 -13.74822,1.62085c-7.59294,0 -13.67348,-0.72578 -13.74822,-1.62085c-0.15108,-1.8093 7.62382,-1.62085 13.74822,-1.62085c7.59294,0 14.35254,-0.43395 13.74822,1.62085z" data-paper-data="{&quot;origPos&quot;:null}" fill="#e2cbb7" stroke="#b79e89" stroke-width="0.5"/><path d="M228.02159,204.39041c0,1.25726 -1.22745,1.67074 -10.50002,1.72331c-9.26797,0.05255 -10.23751,-0.46605 -10.23751,-1.72331c0,-1.25726 4.64225,-2.27649 10.36876,-2.27649c5.72651,0 10.36876,1.01921 10.36876,2.27649z" data-paper-data="{&quot;origPos&quot;:null}" fill="url(#color-1)" stroke="#2e2318" stroke-width="0.5"/><path d="M271.74477,204.43701c0,1.25726 -1.22745,1.67074 -10.50002,1.72331c-9.26797,0.05255 -10.23752,-0.46605 -10.23752,-1.72331c0,-1.25726 4.64226,-2.27649 10.36877,-2.27649c5.72651,0 10.36877,1.01921 10.36877,2.27649z" data-paper-data="{&quot;origPos&quot;:null}" fill="url(#color-2)" stroke="#2e2318" stroke-width="0.5"/><g data-paper-data="{&quot;origPos&quot;:null}"><path d="M262.53013,202.96304c0,0.23535 -4.51217,0.67421 -11.47318,0.82635c-3.80788,0.08323 -6.8699,-0.09887 -10.73549,-0.09887c-3.42608,0 -6.66589,0.16122 -10.09057,0.14893c-5.59832,-0.0201 -11.06055,-0.26486 -11.06055,-0.5552c0,-0.23481 13.55818,-0.2173 21.15111,-0.2173c7.59293,0 22.20867,-0.33874 22.20867,-0.10393z" data-paper-data="{&quot;origPos&quot;:null}" fill="url(#color-3)" stroke="#654d38" stroke-width="0.5"/><path d="M264.19206,202.33946c0,0.68302 -3.19595,1.0148 -8.60699,1.10682c-5.41739,0.09213 -10.03651,-0.27071 -15.64125,-0.24706c-5.87885,0.0248 -7.22016,0.37783 -14.25195,0.34894c-6.69679,-0.02752 -9.08982,-0.26712 -9.08982,-1.20871c0,-1.02574 1.74878,-0.96768 7.63751,-1.68162c4.39724,-0.5331 9.17288,-1.41735 15.70426,-1.40789c6.53138,0.00946 10.97868,0.6463 15.99102,1.35474c4.62858,0.6542 8.25723,0.74855 8.25723,1.73475z" data-paper-data="{&quot;origPos&quot;:null}" fill="url(#color-4)" stroke="#785f49" stroke-width="0.5"/><g data-paper-data="{&quot;origPos&quot;:null,&quot;index&quot;:null}" stroke="#000000" stroke-width="0"><path d="M246.76962,200.99833c2.50876,0 2.26619,0.32994 2.26619,0.73695c0,0.40701 0.24257,0.34783 -2.26619,0.34783c-2.50876,0 -2.26619,0.05918 -2.26619,-0.34783c0,-0.40701 -0.24257,-0.73695 2.26619,-0.73695z" data-paper-data="{&quot;origPos&quot;:null}" fill="#000000"/><path d="M247.21141,201.09505c0.55338,0 1.00198,0.06631 1.00198,0.1481c0,0.0818 -0.4486,0.1481 -1.00198,0.1481c-0.55338,0 -1.00198,-0.06631 -1.00198,-0.1481c0,-0.0818 0.4486,-0.1481 1.00198,-0.1481z" data-paper-data="{&quot;origPos&quot;:null}" fill="#ffffff"/><path d="M245.78578,201.34312c0.30939,0 0.5602,0.03708 0.5602,0.08281c0,0.04573 -0.25081,0.08281 -0.5602,0.08281c-0.30939,0 -0.5602,-0.03708 -0.5602,-0.08281c0,-0.04573 0.25081,-0.08281 0.5602,-0.08281z" data-paper-data="{&quot;origPos&quot;:null}" fill="#aaaaaa"/></g><g data-paper-data="{&quot;origPos&quot;:null,&quot;index&quot;:null}" stroke="#000000" stroke-width="0"><path d="M234.57625,200.9997c2.50876,0 2.26619,0.32994 2.26619,0.73695c0,0.40701 0.24257,0.37562 -2.26619,0.37562c-2.50876,0 -2.26619,0.03139 -2.26619,-0.37562c0,-0.40701 -0.24257,-0.73695 2.26619,-0.73695z" data-paper-data="{&quot;origPos&quot;:null}" fill="#000000"/><path d="M235.01804,201.09643c0.55337,0 1.00197,0.06631 1.00197,0.1481c0,0.0818 -0.4486,0.1481 -1.00197,0.1481c-0.55338,0 -1.00198,-0.06632 -1.00198,-0.1481c0,-0.0818 0.44861,-0.1481 1.00198,-0.1481z" data-paper-data="{&quot;origPos&quot;:null}" fill="#ffffff"/><path d="M233.59242,201.3445c0.30939,0 0.5602,0.03708 0.5602,0.08281c0,0.04573 -0.25081,0.08281 -0.5602,0.08281c-0.30939,0 -0.5602,-0.03708 -0.5602,-0.08281c0,-0.04573 0.25081,-0.08281 0.5602,-0.08281z" data-paper-data="{&quot;origPos&quot;:null}" fill="#aaaaaa"/></g><path d="M242.7612,200.339c-1.07638,-0.1115 -1.13353,-0.24074 0.28337,-0.40608c1.41691,-0.16534 3.09095,-0.15939 4.5145,-0.09748c4.31622,0.18771 4.65824,0.75084 4.65824,0.75084c0,0 -1.39596,-0.21471 -2.71304,-0.28924c-0.59268,-0.03353 -2.57419,-0.09965 -3.20077,-0.02654c-1.41691,0.16534 -2.4659,0.17999 -3.54228,0.06849z" data-paper-data="{&quot;origPos&quot;:null,&quot;origRot&quot;:0,&quot;index&quot;:null}" fill="url(#color-5)" stroke="#2e2318" stroke-width="0.5"/><path d="M238.3391,200.39301c-1.20155,0.08928 -2.21971,0.0926 -3.41461,-0.09822c-0.5284,-0.08438 -2.5679,-0.05747 -3.19498,-0.03582c-1.39351,0.04808 -3.03866,0.23314 -3.03866,0.23314c0,0 1.03571,-0.54969 5.53238,-0.65146c1.48307,-0.03357 3.14424,-0.007 4.33915,0.18381c0,0 0.97826,0.27928 -0.22328,0.36856z" data-paper-data="{&quot;origPos&quot;:null,&quot;origRot&quot;:0,&quot;index&quot;:null}" fill="url(#color-6)" stroke="#2e2318" stroke-width="0.5"/><path d="M228.2638,203.53745c0,0 1.87063,-0.01047 3.33606,-0.07634c2.60829,-0.11722 4.53935,-0.1988 4.53935,-0.1988l-2.77534,0.69873z" data-paper-data="{&quot;origPos&quot;:null}" fill="#ffffff" stroke="#9a9a9a" stroke-width="0.5"/><path d="M246.7471,203.84526l-3.19119,-0.62073c0,0 3.17859,0.08158 4.74727,0.1338c1.5048,0.05008 3.54398,0.06333 3.54398,0.06333z" data-paper-data="{&quot;origPos&quot;:null,&quot;index&quot;:null}" fill="#ffffff" stroke="#9a9a9a" stroke-width="0.5"/></g></g></g></svg>