<svg version="1.1" xmlns="http://www.w3.org/2000/svg" xmlns:xlink="http://www.w3.org/1999/xlink" width="60.50975" height="60.50974" viewBox="0,0,60.50975,60.50974"><defs><radialGradient cx="240.00001" cy="179.89333" r="19.49599" gradientUnits="userSpaceOnUse" id="color-1"><stop offset="0" stop-color="#ff3b3b"/><stop offset="1" stop-color="#943535"/></radialGradient></defs><g transform="translate(-209.74514,-148.99512)"><g data-paper-data="{&quot;isPaintingLayer&quot;:true}" fill="none" fill-rule="nonzero" stroke="none" stroke-width="1" stroke-linecap="butt" stroke-linejoin="miter" stroke-miterlimit="10" stroke-dasharray="" stroke-dashoffset="0" font-family="none" font-weight="none" font-size="none" text-anchor="none" style="mix-blend-mode: normal"><path d="M259.03548,159.60696l-4.70773,12.49978c0,0 -4.01262,-0.50987 -5.56184,-2.0591c-1.23833,-1.23833 -1.58089,-5.08363 -1.58089,-5.08363z" data-paper-data="{&quot;origPos&quot;:null,&quot;origRot&quot;:0}" fill="#ffffff" stroke="#979ebd"/><path d="M220.96452,200.17971l4.70773,-12.49979c0,0 4.01262,0.50987 5.56184,2.0591c1.23833,1.23833 1.5809,5.08365 1.5809,5.08365z" data-paper-data="{&quot;origPos&quot;:null,&quot;origRot&quot;:0}" fill="#ffffff" stroke="#979ebd"/><path d="M260.28638,198.92882l-12.49978,-4.70773c0,0 0.50988,-4.01262 2.0591,-5.56184c1.23833,-1.23833 5.08363,-1.58089 5.08363,-1.58089z" data-paper-data="{&quot;origPos&quot;:null,&quot;origRot&quot;:0}" fill="#ffffff" stroke="#979ebd"/><path d="M219.71364,160.85785l12.49978,4.70772c0,0 -0.50987,4.01262 -2.0591,5.56184c-1.23832,1.23832 -5.08365,1.58089 -5.08365,1.58089z" data-paper-data="{&quot;origPos&quot;:null,&quot;origRot&quot;:0}" fill="#ffffff" stroke="#979ebd"/><path d="M220.50402,179.89333c0,-10.76734 8.72865,-19.49599 19.49599,-19.49599c10.76734,0 19.49599,8.72865 19.49599,19.49599c0,10.76734 -8.72865,19.49599 -19.49599,19.49599c-10.76734,0 -19.49599,-8.72865 -19.49599,-19.49599z" data-paper-data="{&quot;origPos&quot;:null}" fill="url(#color-1)" stroke="#4a1818"/><path d="M240.1905,166.76359c2.70874,2.70874 1.8448,7.96444 -1.92968,11.73892c-3.77448,3.77448 -9.03018,4.63843 -11.73892,1.92968c-2.70874,-2.70874 -1.8448,-7.96444 1.92968,-11.73892c3.77448,-3.77448 9.03018,-4.63843 11.73892,-1.92968z" data-paper-data="{&quot;origRot&quot;:0,&quot;origPos&quot;:null}" fill="#ff6e6e" stroke="none"/><path d="M211.05002,179.67889l11.36556,-5.14667c0,0 0.51467,2.85046 0.51467,4.67489c0,1.85791 -0.51467,4.76067 -0.51467,4.76067z" data-paper-data="{&quot;origPos&quot;:null}" fill="#ffffff" stroke="#979ebd"/><path d="M257.58446,183.96778c0,0 -0.68622,-2.96971 -0.68622,-4.76067c0,-1.89138 0.68622,-4.67489 0.68622,-4.67489l11.36556,5.14667z" data-paper-data="{&quot;origPos&quot;:null,&quot;index&quot;:null}" fill="#ffffff" stroke="#979ebd"/><path d="M239.57113,150.3l5.14667,11.36556c0,0 -2.84731,0.34311 -4.88933,0.34311c-1.64031,0 -4.54622,-0.34311 -4.54622,-0.34311z" data-paper-data="{&quot;origPos&quot;:null,&quot;origRot&quot;:0}" fill="#ffffff" stroke="#979ebd"/><path d="M235.28224,196.83443c0,0 2.70505,-0.51467 4.54622,-0.51467c1.84118,0 4.88933,0.51467 4.88933,0.51467l-5.14667,11.36556z" data-paper-data="{&quot;origPos&quot;:null,&quot;index&quot;:null,&quot;origRot&quot;:0}" fill="#ffffff" stroke="#979ebd"/><path d="M253.56227,165.43985l-3.35413,8.90575c0,0 -2.85888,-0.36327 -3.96266,-1.46705c-0.88228,-0.88228 -1.12634,-3.62195 -1.12634,-3.62195z" data-paper-data="{&quot;origPos&quot;:null,&quot;origRot&quot;:0}" fill="#ffffff" stroke="#979ebd"/><path d="M240.00001,183.2631c-1.86107,0 -3.36977,-1.50869 -3.36977,-3.36977c0,-1.86108 1.50869,-3.36977 3.36977,-3.36977c1.86108,0 3.36977,1.50869 3.36977,3.36977c0,1.86107 -1.50869,3.36977 -3.36977,3.36977z" data-paper-data="{&quot;origPos&quot;:null}" fill="#ffffff" stroke="#979ebd"/><path d="M226.43775,194.34682l3.35413,-8.90576c0,0 2.85888,0.36327 3.96266,1.46705c0.88228,0.88228 1.12635,3.62196 1.12635,3.62196z" data-paper-data="{&quot;origPos&quot;:null,&quot;origRot&quot;:0}" fill="#ffffff" stroke="#979ebd"/><path d="M254.45349,193.4556l-8.90575,-3.35413c0,0 0.36327,-2.85888 1.46705,-3.96266c0.88228,-0.88228 3.62195,-1.12634 3.62195,-1.12634z" data-paper-data="{&quot;origPos&quot;:null,&quot;origRot&quot;:0}" fill="#ffffff" stroke="#979ebd"/><path d="M225.54653,166.33107l8.90576,3.35412c0,0 -0.36327,2.85888 -1.46705,3.96266c-0.88227,0.88228 -3.62196,1.12635 -3.62196,1.12635z" data-paper-data="{&quot;origPos&quot;:null,&quot;origRot&quot;:0}" fill="#ffffff" stroke="#979ebd"/></g></g></svg>